G04 #@! TF.GenerationSoftware,KiCad,Pcbnew,(5.1.0)-1*
G04 #@! TF.CreationDate,2019-06-01T08:22:03-04:00*
G04 #@! TF.ProjectId,CommandCenter_KICAD,436f6d6d-616e-4644-9365-6e7465725f4b,rev?*
G04 #@! TF.SameCoordinates,Original*
G04 #@! TF.FileFunction,Paste,Bot*
G04 #@! TF.FilePolarity,Positive*
%FSLAX46Y46*%
G04 Gerber Fmt 4.6, Leading zero omitted, Abs format (unit mm)*
G04 Created by KiCad (PCBNEW (5.1.0)-1) date 2019-06-01 08:22:03*
%MOMM*%
%LPD*%
G04 APERTURE LIST*
%ADD10R,0.720000X0.600000*%
%ADD11R,1.800000X1.200000*%
%ADD12C,0.100000*%
%ADD13C,0.950000*%
G04 APERTURE END LIST*
D10*
X129170000Y-139384000D03*
X130140000Y-139384000D03*
X131110000Y-139384000D03*
X132080000Y-139384000D03*
X132080000Y-137984000D03*
X131110000Y-137984000D03*
X130140000Y-137984000D03*
X129170000Y-137984000D03*
D11*
X162084000Y-86848000D03*
X166884000Y-86848000D03*
X166884000Y-88448000D03*
X162084000Y-88448000D03*
X162084000Y-90048000D03*
X166884000Y-90048000D03*
X157084000Y-96848000D03*
X161884000Y-96848000D03*
X161884000Y-98448000D03*
X157084000Y-98448000D03*
X157084000Y-100048000D03*
X161884000Y-100048000D03*
X153884000Y-108048000D03*
X149084000Y-108048000D03*
X149084000Y-106448000D03*
X153884000Y-106448000D03*
X153884000Y-104848000D03*
X149084000Y-104848000D03*
X143884000Y-113048000D03*
X139084000Y-113048000D03*
X139084000Y-111448000D03*
X143884000Y-111448000D03*
X143884000Y-109848000D03*
X139084000Y-109848000D03*
X128084000Y-111848000D03*
X132884000Y-111848000D03*
X132884000Y-113448000D03*
X128084000Y-113448000D03*
X128084000Y-115048000D03*
X132884000Y-115048000D03*
X121884000Y-113048000D03*
X117084000Y-113048000D03*
X117084000Y-111448000D03*
X121884000Y-111448000D03*
X121884000Y-109848000D03*
X117084000Y-109848000D03*
X111884000Y-108048000D03*
X107084000Y-108048000D03*
X107084000Y-106448000D03*
X111884000Y-106448000D03*
X111884000Y-104848000D03*
X107084000Y-104848000D03*
X103884000Y-100048000D03*
X99084000Y-100048000D03*
X99084000Y-98448000D03*
X103884000Y-98448000D03*
X103884000Y-96848000D03*
X99084000Y-96848000D03*
X98884000Y-90048000D03*
X94084000Y-90048000D03*
X94084000Y-88448000D03*
X98884000Y-88448000D03*
X98884000Y-86848000D03*
X94084000Y-86848000D03*
X96884000Y-79048000D03*
X92084000Y-79048000D03*
X92084000Y-77448000D03*
X96884000Y-77448000D03*
X96884000Y-75848000D03*
X92084000Y-75848000D03*
X98884000Y-68048000D03*
X94084000Y-68048000D03*
X94084000Y-66448000D03*
X98884000Y-66448000D03*
X98884000Y-64848000D03*
X94084000Y-64848000D03*
X103884000Y-58048000D03*
X99084000Y-58048000D03*
X99084000Y-56448000D03*
X103884000Y-56448000D03*
X103884000Y-54848000D03*
X99084000Y-54848000D03*
X107084000Y-46848000D03*
X111884000Y-46848000D03*
X111884000Y-48448000D03*
X107084000Y-48448000D03*
X107084000Y-50048000D03*
X111884000Y-50048000D03*
X121884000Y-45048000D03*
X117084000Y-45048000D03*
X117084000Y-43448000D03*
X121884000Y-43448000D03*
X121884000Y-41848000D03*
X117084000Y-41848000D03*
X132884000Y-43048000D03*
X128084000Y-43048000D03*
X128084000Y-41448000D03*
X132884000Y-41448000D03*
X132884000Y-39848000D03*
X128084000Y-39848000D03*
X139084000Y-41848000D03*
X143884000Y-41848000D03*
X143884000Y-43448000D03*
X139084000Y-43448000D03*
X139084000Y-45048000D03*
X143884000Y-45048000D03*
X153884000Y-50048000D03*
X149084000Y-50048000D03*
X149084000Y-48448000D03*
X153884000Y-48448000D03*
X153884000Y-46848000D03*
X149084000Y-46848000D03*
X157084000Y-54848000D03*
X161884000Y-54848000D03*
X161884000Y-56448000D03*
X157084000Y-56448000D03*
X157084000Y-58048000D03*
X161884000Y-58048000D03*
X162084000Y-64848000D03*
X166884000Y-64848000D03*
X166884000Y-66448000D03*
X162084000Y-66448000D03*
X162084000Y-68048000D03*
X166884000Y-68048000D03*
X164084000Y-75848000D03*
X168884000Y-75848000D03*
X168884000Y-77448000D03*
X164084000Y-77448000D03*
X164084000Y-79048000D03*
X168884000Y-79048000D03*
D12*
G36*
X102114779Y-88235144D02*
G01*
X102137834Y-88238563D01*
X102160443Y-88244227D01*
X102182387Y-88252079D01*
X102203457Y-88262044D01*
X102223448Y-88274026D01*
X102242168Y-88287910D01*
X102259438Y-88303562D01*
X102275090Y-88320832D01*
X102288974Y-88339552D01*
X102300956Y-88359543D01*
X102310921Y-88380613D01*
X102318773Y-88402557D01*
X102324437Y-88425166D01*
X102327856Y-88448221D01*
X102329000Y-88471500D01*
X102329000Y-89046500D01*
X102327856Y-89069779D01*
X102324437Y-89092834D01*
X102318773Y-89115443D01*
X102310921Y-89137387D01*
X102300956Y-89158457D01*
X102288974Y-89178448D01*
X102275090Y-89197168D01*
X102259438Y-89214438D01*
X102242168Y-89230090D01*
X102223448Y-89243974D01*
X102203457Y-89255956D01*
X102182387Y-89265921D01*
X102160443Y-89273773D01*
X102137834Y-89279437D01*
X102114779Y-89282856D01*
X102091500Y-89284000D01*
X101616500Y-89284000D01*
X101593221Y-89282856D01*
X101570166Y-89279437D01*
X101547557Y-89273773D01*
X101525613Y-89265921D01*
X101504543Y-89255956D01*
X101484552Y-89243974D01*
X101465832Y-89230090D01*
X101448562Y-89214438D01*
X101432910Y-89197168D01*
X101419026Y-89178448D01*
X101407044Y-89158457D01*
X101397079Y-89137387D01*
X101389227Y-89115443D01*
X101383563Y-89092834D01*
X101380144Y-89069779D01*
X101379000Y-89046500D01*
X101379000Y-88471500D01*
X101380144Y-88448221D01*
X101383563Y-88425166D01*
X101389227Y-88402557D01*
X101397079Y-88380613D01*
X101407044Y-88359543D01*
X101419026Y-88339552D01*
X101432910Y-88320832D01*
X101448562Y-88303562D01*
X101465832Y-88287910D01*
X101484552Y-88274026D01*
X101504543Y-88262044D01*
X101525613Y-88252079D01*
X101547557Y-88244227D01*
X101570166Y-88238563D01*
X101593221Y-88235144D01*
X101616500Y-88234000D01*
X102091500Y-88234000D01*
X102114779Y-88235144D01*
X102114779Y-88235144D01*
G37*
D13*
X101854000Y-88759000D03*
D12*
G36*
X102114779Y-86485144D02*
G01*
X102137834Y-86488563D01*
X102160443Y-86494227D01*
X102182387Y-86502079D01*
X102203457Y-86512044D01*
X102223448Y-86524026D01*
X102242168Y-86537910D01*
X102259438Y-86553562D01*
X102275090Y-86570832D01*
X102288974Y-86589552D01*
X102300956Y-86609543D01*
X102310921Y-86630613D01*
X102318773Y-86652557D01*
X102324437Y-86675166D01*
X102327856Y-86698221D01*
X102329000Y-86721500D01*
X102329000Y-87296500D01*
X102327856Y-87319779D01*
X102324437Y-87342834D01*
X102318773Y-87365443D01*
X102310921Y-87387387D01*
X102300956Y-87408457D01*
X102288974Y-87428448D01*
X102275090Y-87447168D01*
X102259438Y-87464438D01*
X102242168Y-87480090D01*
X102223448Y-87493974D01*
X102203457Y-87505956D01*
X102182387Y-87515921D01*
X102160443Y-87523773D01*
X102137834Y-87529437D01*
X102114779Y-87532856D01*
X102091500Y-87534000D01*
X101616500Y-87534000D01*
X101593221Y-87532856D01*
X101570166Y-87529437D01*
X101547557Y-87523773D01*
X101525613Y-87515921D01*
X101504543Y-87505956D01*
X101484552Y-87493974D01*
X101465832Y-87480090D01*
X101448562Y-87464438D01*
X101432910Y-87447168D01*
X101419026Y-87428448D01*
X101407044Y-87408457D01*
X101397079Y-87387387D01*
X101389227Y-87365443D01*
X101383563Y-87342834D01*
X101380144Y-87319779D01*
X101379000Y-87296500D01*
X101379000Y-86721500D01*
X101380144Y-86698221D01*
X101383563Y-86675166D01*
X101389227Y-86652557D01*
X101397079Y-86630613D01*
X101407044Y-86609543D01*
X101419026Y-86589552D01*
X101432910Y-86570832D01*
X101448562Y-86553562D01*
X101465832Y-86537910D01*
X101484552Y-86524026D01*
X101504543Y-86512044D01*
X101525613Y-86502079D01*
X101547557Y-86494227D01*
X101570166Y-86488563D01*
X101593221Y-86485144D01*
X101616500Y-86484000D01*
X102091500Y-86484000D01*
X102114779Y-86485144D01*
X102114779Y-86485144D01*
G37*
D13*
X101854000Y-87009000D03*
D12*
G36*
X131741779Y-116620144D02*
G01*
X131764834Y-116623563D01*
X131787443Y-116629227D01*
X131809387Y-116637079D01*
X131830457Y-116647044D01*
X131850448Y-116659026D01*
X131869168Y-116672910D01*
X131886438Y-116688562D01*
X131902090Y-116705832D01*
X131915974Y-116724552D01*
X131927956Y-116744543D01*
X131937921Y-116765613D01*
X131945773Y-116787557D01*
X131951437Y-116810166D01*
X131954856Y-116833221D01*
X131956000Y-116856500D01*
X131956000Y-117331500D01*
X131954856Y-117354779D01*
X131951437Y-117377834D01*
X131945773Y-117400443D01*
X131937921Y-117422387D01*
X131927956Y-117443457D01*
X131915974Y-117463448D01*
X131902090Y-117482168D01*
X131886438Y-117499438D01*
X131869168Y-117515090D01*
X131850448Y-117528974D01*
X131830457Y-117540956D01*
X131809387Y-117550921D01*
X131787443Y-117558773D01*
X131764834Y-117564437D01*
X131741779Y-117567856D01*
X131718500Y-117569000D01*
X131143500Y-117569000D01*
X131120221Y-117567856D01*
X131097166Y-117564437D01*
X131074557Y-117558773D01*
X131052613Y-117550921D01*
X131031543Y-117540956D01*
X131011552Y-117528974D01*
X130992832Y-117515090D01*
X130975562Y-117499438D01*
X130959910Y-117482168D01*
X130946026Y-117463448D01*
X130934044Y-117443457D01*
X130924079Y-117422387D01*
X130916227Y-117400443D01*
X130910563Y-117377834D01*
X130907144Y-117354779D01*
X130906000Y-117331500D01*
X130906000Y-116856500D01*
X130907144Y-116833221D01*
X130910563Y-116810166D01*
X130916227Y-116787557D01*
X130924079Y-116765613D01*
X130934044Y-116744543D01*
X130946026Y-116724552D01*
X130959910Y-116705832D01*
X130975562Y-116688562D01*
X130992832Y-116672910D01*
X131011552Y-116659026D01*
X131031543Y-116647044D01*
X131052613Y-116637079D01*
X131074557Y-116629227D01*
X131097166Y-116623563D01*
X131120221Y-116620144D01*
X131143500Y-116619000D01*
X131718500Y-116619000D01*
X131741779Y-116620144D01*
X131741779Y-116620144D01*
G37*
D13*
X131431000Y-117094000D03*
D12*
G36*
X129991779Y-116620144D02*
G01*
X130014834Y-116623563D01*
X130037443Y-116629227D01*
X130059387Y-116637079D01*
X130080457Y-116647044D01*
X130100448Y-116659026D01*
X130119168Y-116672910D01*
X130136438Y-116688562D01*
X130152090Y-116705832D01*
X130165974Y-116724552D01*
X130177956Y-116744543D01*
X130187921Y-116765613D01*
X130195773Y-116787557D01*
X130201437Y-116810166D01*
X130204856Y-116833221D01*
X130206000Y-116856500D01*
X130206000Y-117331500D01*
X130204856Y-117354779D01*
X130201437Y-117377834D01*
X130195773Y-117400443D01*
X130187921Y-117422387D01*
X130177956Y-117443457D01*
X130165974Y-117463448D01*
X130152090Y-117482168D01*
X130136438Y-117499438D01*
X130119168Y-117515090D01*
X130100448Y-117528974D01*
X130080457Y-117540956D01*
X130059387Y-117550921D01*
X130037443Y-117558773D01*
X130014834Y-117564437D01*
X129991779Y-117567856D01*
X129968500Y-117569000D01*
X129393500Y-117569000D01*
X129370221Y-117567856D01*
X129347166Y-117564437D01*
X129324557Y-117558773D01*
X129302613Y-117550921D01*
X129281543Y-117540956D01*
X129261552Y-117528974D01*
X129242832Y-117515090D01*
X129225562Y-117499438D01*
X129209910Y-117482168D01*
X129196026Y-117463448D01*
X129184044Y-117443457D01*
X129174079Y-117422387D01*
X129166227Y-117400443D01*
X129160563Y-117377834D01*
X129157144Y-117354779D01*
X129156000Y-117331500D01*
X129156000Y-116856500D01*
X129157144Y-116833221D01*
X129160563Y-116810166D01*
X129166227Y-116787557D01*
X129174079Y-116765613D01*
X129184044Y-116744543D01*
X129196026Y-116724552D01*
X129209910Y-116705832D01*
X129225562Y-116688562D01*
X129242832Y-116672910D01*
X129261552Y-116659026D01*
X129281543Y-116647044D01*
X129302613Y-116637079D01*
X129324557Y-116629227D01*
X129347166Y-116623563D01*
X129370221Y-116620144D01*
X129393500Y-116619000D01*
X129968500Y-116619000D01*
X129991779Y-116620144D01*
X129991779Y-116620144D01*
G37*
D13*
X129681000Y-117094000D03*
D12*
G36*
X170694779Y-88348144D02*
G01*
X170717834Y-88351563D01*
X170740443Y-88357227D01*
X170762387Y-88365079D01*
X170783457Y-88375044D01*
X170803448Y-88387026D01*
X170822168Y-88400910D01*
X170839438Y-88416562D01*
X170855090Y-88433832D01*
X170868974Y-88452552D01*
X170880956Y-88472543D01*
X170890921Y-88493613D01*
X170898773Y-88515557D01*
X170904437Y-88538166D01*
X170907856Y-88561221D01*
X170909000Y-88584500D01*
X170909000Y-89159500D01*
X170907856Y-89182779D01*
X170904437Y-89205834D01*
X170898773Y-89228443D01*
X170890921Y-89250387D01*
X170880956Y-89271457D01*
X170868974Y-89291448D01*
X170855090Y-89310168D01*
X170839438Y-89327438D01*
X170822168Y-89343090D01*
X170803448Y-89356974D01*
X170783457Y-89368956D01*
X170762387Y-89378921D01*
X170740443Y-89386773D01*
X170717834Y-89392437D01*
X170694779Y-89395856D01*
X170671500Y-89397000D01*
X170196500Y-89397000D01*
X170173221Y-89395856D01*
X170150166Y-89392437D01*
X170127557Y-89386773D01*
X170105613Y-89378921D01*
X170084543Y-89368956D01*
X170064552Y-89356974D01*
X170045832Y-89343090D01*
X170028562Y-89327438D01*
X170012910Y-89310168D01*
X169999026Y-89291448D01*
X169987044Y-89271457D01*
X169977079Y-89250387D01*
X169969227Y-89228443D01*
X169963563Y-89205834D01*
X169960144Y-89182779D01*
X169959000Y-89159500D01*
X169959000Y-88584500D01*
X169960144Y-88561221D01*
X169963563Y-88538166D01*
X169969227Y-88515557D01*
X169977079Y-88493613D01*
X169987044Y-88472543D01*
X169999026Y-88452552D01*
X170012910Y-88433832D01*
X170028562Y-88416562D01*
X170045832Y-88400910D01*
X170064552Y-88387026D01*
X170084543Y-88375044D01*
X170105613Y-88365079D01*
X170127557Y-88357227D01*
X170150166Y-88351563D01*
X170173221Y-88348144D01*
X170196500Y-88347000D01*
X170671500Y-88347000D01*
X170694779Y-88348144D01*
X170694779Y-88348144D01*
G37*
D13*
X170434000Y-88872000D03*
D12*
G36*
X170694779Y-86598144D02*
G01*
X170717834Y-86601563D01*
X170740443Y-86607227D01*
X170762387Y-86615079D01*
X170783457Y-86625044D01*
X170803448Y-86637026D01*
X170822168Y-86650910D01*
X170839438Y-86666562D01*
X170855090Y-86683832D01*
X170868974Y-86702552D01*
X170880956Y-86722543D01*
X170890921Y-86743613D01*
X170898773Y-86765557D01*
X170904437Y-86788166D01*
X170907856Y-86811221D01*
X170909000Y-86834500D01*
X170909000Y-87409500D01*
X170907856Y-87432779D01*
X170904437Y-87455834D01*
X170898773Y-87478443D01*
X170890921Y-87500387D01*
X170880956Y-87521457D01*
X170868974Y-87541448D01*
X170855090Y-87560168D01*
X170839438Y-87577438D01*
X170822168Y-87593090D01*
X170803448Y-87606974D01*
X170783457Y-87618956D01*
X170762387Y-87628921D01*
X170740443Y-87636773D01*
X170717834Y-87642437D01*
X170694779Y-87645856D01*
X170671500Y-87647000D01*
X170196500Y-87647000D01*
X170173221Y-87645856D01*
X170150166Y-87642437D01*
X170127557Y-87636773D01*
X170105613Y-87628921D01*
X170084543Y-87618956D01*
X170064552Y-87606974D01*
X170045832Y-87593090D01*
X170028562Y-87577438D01*
X170012910Y-87560168D01*
X169999026Y-87541448D01*
X169987044Y-87521457D01*
X169977079Y-87500387D01*
X169969227Y-87478443D01*
X169963563Y-87455834D01*
X169960144Y-87432779D01*
X169959000Y-87409500D01*
X169959000Y-86834500D01*
X169960144Y-86811221D01*
X169963563Y-86788166D01*
X169969227Y-86765557D01*
X169977079Y-86743613D01*
X169987044Y-86722543D01*
X169999026Y-86702552D01*
X170012910Y-86683832D01*
X170028562Y-86666562D01*
X170045832Y-86650910D01*
X170064552Y-86637026D01*
X170084543Y-86625044D01*
X170105613Y-86615079D01*
X170127557Y-86607227D01*
X170150166Y-86601563D01*
X170173221Y-86598144D01*
X170196500Y-86597000D01*
X170671500Y-86597000D01*
X170694779Y-86598144D01*
X170694779Y-86598144D01*
G37*
D13*
X170434000Y-87122000D03*
D12*
G36*
X108909779Y-43976144D02*
G01*
X108932834Y-43979563D01*
X108955443Y-43985227D01*
X108977387Y-43993079D01*
X108998457Y-44003044D01*
X109018448Y-44015026D01*
X109037168Y-44028910D01*
X109054438Y-44044562D01*
X109070090Y-44061832D01*
X109083974Y-44080552D01*
X109095956Y-44100543D01*
X109105921Y-44121613D01*
X109113773Y-44143557D01*
X109119437Y-44166166D01*
X109122856Y-44189221D01*
X109124000Y-44212500D01*
X109124000Y-44687500D01*
X109122856Y-44710779D01*
X109119437Y-44733834D01*
X109113773Y-44756443D01*
X109105921Y-44778387D01*
X109095956Y-44799457D01*
X109083974Y-44819448D01*
X109070090Y-44838168D01*
X109054438Y-44855438D01*
X109037168Y-44871090D01*
X109018448Y-44884974D01*
X108998457Y-44896956D01*
X108977387Y-44906921D01*
X108955443Y-44914773D01*
X108932834Y-44920437D01*
X108909779Y-44923856D01*
X108886500Y-44925000D01*
X108311500Y-44925000D01*
X108288221Y-44923856D01*
X108265166Y-44920437D01*
X108242557Y-44914773D01*
X108220613Y-44906921D01*
X108199543Y-44896956D01*
X108179552Y-44884974D01*
X108160832Y-44871090D01*
X108143562Y-44855438D01*
X108127910Y-44838168D01*
X108114026Y-44819448D01*
X108102044Y-44799457D01*
X108092079Y-44778387D01*
X108084227Y-44756443D01*
X108078563Y-44733834D01*
X108075144Y-44710779D01*
X108074000Y-44687500D01*
X108074000Y-44212500D01*
X108075144Y-44189221D01*
X108078563Y-44166166D01*
X108084227Y-44143557D01*
X108092079Y-44121613D01*
X108102044Y-44100543D01*
X108114026Y-44080552D01*
X108127910Y-44061832D01*
X108143562Y-44044562D01*
X108160832Y-44028910D01*
X108179552Y-44015026D01*
X108199543Y-44003044D01*
X108220613Y-43993079D01*
X108242557Y-43985227D01*
X108265166Y-43979563D01*
X108288221Y-43976144D01*
X108311500Y-43975000D01*
X108886500Y-43975000D01*
X108909779Y-43976144D01*
X108909779Y-43976144D01*
G37*
D13*
X108599000Y-44450000D03*
D12*
G36*
X110659779Y-43976144D02*
G01*
X110682834Y-43979563D01*
X110705443Y-43985227D01*
X110727387Y-43993079D01*
X110748457Y-44003044D01*
X110768448Y-44015026D01*
X110787168Y-44028910D01*
X110804438Y-44044562D01*
X110820090Y-44061832D01*
X110833974Y-44080552D01*
X110845956Y-44100543D01*
X110855921Y-44121613D01*
X110863773Y-44143557D01*
X110869437Y-44166166D01*
X110872856Y-44189221D01*
X110874000Y-44212500D01*
X110874000Y-44687500D01*
X110872856Y-44710779D01*
X110869437Y-44733834D01*
X110863773Y-44756443D01*
X110855921Y-44778387D01*
X110845956Y-44799457D01*
X110833974Y-44819448D01*
X110820090Y-44838168D01*
X110804438Y-44855438D01*
X110787168Y-44871090D01*
X110768448Y-44884974D01*
X110748457Y-44896956D01*
X110727387Y-44906921D01*
X110705443Y-44914773D01*
X110682834Y-44920437D01*
X110659779Y-44923856D01*
X110636500Y-44925000D01*
X110061500Y-44925000D01*
X110038221Y-44923856D01*
X110015166Y-44920437D01*
X109992557Y-44914773D01*
X109970613Y-44906921D01*
X109949543Y-44896956D01*
X109929552Y-44884974D01*
X109910832Y-44871090D01*
X109893562Y-44855438D01*
X109877910Y-44838168D01*
X109864026Y-44819448D01*
X109852044Y-44799457D01*
X109842079Y-44778387D01*
X109834227Y-44756443D01*
X109828563Y-44733834D01*
X109825144Y-44710779D01*
X109824000Y-44687500D01*
X109824000Y-44212500D01*
X109825144Y-44189221D01*
X109828563Y-44166166D01*
X109834227Y-44143557D01*
X109842079Y-44121613D01*
X109852044Y-44100543D01*
X109864026Y-44080552D01*
X109877910Y-44061832D01*
X109893562Y-44044562D01*
X109910832Y-44028910D01*
X109929552Y-44015026D01*
X109949543Y-44003044D01*
X109970613Y-43993079D01*
X109992557Y-43985227D01*
X110015166Y-43979563D01*
X110038221Y-43976144D01*
X110061500Y-43975000D01*
X110636500Y-43975000D01*
X110659779Y-43976144D01*
X110659779Y-43976144D01*
G37*
D13*
X110349000Y-44450000D03*
D12*
G36*
X152569779Y-43722144D02*
G01*
X152592834Y-43725563D01*
X152615443Y-43731227D01*
X152637387Y-43739079D01*
X152658457Y-43749044D01*
X152678448Y-43761026D01*
X152697168Y-43774910D01*
X152714438Y-43790562D01*
X152730090Y-43807832D01*
X152743974Y-43826552D01*
X152755956Y-43846543D01*
X152765921Y-43867613D01*
X152773773Y-43889557D01*
X152779437Y-43912166D01*
X152782856Y-43935221D01*
X152784000Y-43958500D01*
X152784000Y-44433500D01*
X152782856Y-44456779D01*
X152779437Y-44479834D01*
X152773773Y-44502443D01*
X152765921Y-44524387D01*
X152755956Y-44545457D01*
X152743974Y-44565448D01*
X152730090Y-44584168D01*
X152714438Y-44601438D01*
X152697168Y-44617090D01*
X152678448Y-44630974D01*
X152658457Y-44642956D01*
X152637387Y-44652921D01*
X152615443Y-44660773D01*
X152592834Y-44666437D01*
X152569779Y-44669856D01*
X152546500Y-44671000D01*
X151971500Y-44671000D01*
X151948221Y-44669856D01*
X151925166Y-44666437D01*
X151902557Y-44660773D01*
X151880613Y-44652921D01*
X151859543Y-44642956D01*
X151839552Y-44630974D01*
X151820832Y-44617090D01*
X151803562Y-44601438D01*
X151787910Y-44584168D01*
X151774026Y-44565448D01*
X151762044Y-44545457D01*
X151752079Y-44524387D01*
X151744227Y-44502443D01*
X151738563Y-44479834D01*
X151735144Y-44456779D01*
X151734000Y-44433500D01*
X151734000Y-43958500D01*
X151735144Y-43935221D01*
X151738563Y-43912166D01*
X151744227Y-43889557D01*
X151752079Y-43867613D01*
X151762044Y-43846543D01*
X151774026Y-43826552D01*
X151787910Y-43807832D01*
X151803562Y-43790562D01*
X151820832Y-43774910D01*
X151839552Y-43761026D01*
X151859543Y-43749044D01*
X151880613Y-43739079D01*
X151902557Y-43731227D01*
X151925166Y-43725563D01*
X151948221Y-43722144D01*
X151971500Y-43721000D01*
X152546500Y-43721000D01*
X152569779Y-43722144D01*
X152569779Y-43722144D01*
G37*
D13*
X152259000Y-44196000D03*
D12*
G36*
X150819779Y-43722144D02*
G01*
X150842834Y-43725563D01*
X150865443Y-43731227D01*
X150887387Y-43739079D01*
X150908457Y-43749044D01*
X150928448Y-43761026D01*
X150947168Y-43774910D01*
X150964438Y-43790562D01*
X150980090Y-43807832D01*
X150993974Y-43826552D01*
X151005956Y-43846543D01*
X151015921Y-43867613D01*
X151023773Y-43889557D01*
X151029437Y-43912166D01*
X151032856Y-43935221D01*
X151034000Y-43958500D01*
X151034000Y-44433500D01*
X151032856Y-44456779D01*
X151029437Y-44479834D01*
X151023773Y-44502443D01*
X151015921Y-44524387D01*
X151005956Y-44545457D01*
X150993974Y-44565448D01*
X150980090Y-44584168D01*
X150964438Y-44601438D01*
X150947168Y-44617090D01*
X150928448Y-44630974D01*
X150908457Y-44642956D01*
X150887387Y-44652921D01*
X150865443Y-44660773D01*
X150842834Y-44666437D01*
X150819779Y-44669856D01*
X150796500Y-44671000D01*
X150221500Y-44671000D01*
X150198221Y-44669856D01*
X150175166Y-44666437D01*
X150152557Y-44660773D01*
X150130613Y-44652921D01*
X150109543Y-44642956D01*
X150089552Y-44630974D01*
X150070832Y-44617090D01*
X150053562Y-44601438D01*
X150037910Y-44584168D01*
X150024026Y-44565448D01*
X150012044Y-44545457D01*
X150002079Y-44524387D01*
X149994227Y-44502443D01*
X149988563Y-44479834D01*
X149985144Y-44456779D01*
X149984000Y-44433500D01*
X149984000Y-43958500D01*
X149985144Y-43935221D01*
X149988563Y-43912166D01*
X149994227Y-43889557D01*
X150002079Y-43867613D01*
X150012044Y-43846543D01*
X150024026Y-43826552D01*
X150037910Y-43807832D01*
X150053562Y-43790562D01*
X150070832Y-43774910D01*
X150089552Y-43761026D01*
X150109543Y-43749044D01*
X150130613Y-43739079D01*
X150152557Y-43731227D01*
X150175166Y-43725563D01*
X150198221Y-43722144D01*
X150221500Y-43721000D01*
X150796500Y-43721000D01*
X150819779Y-43722144D01*
X150819779Y-43722144D01*
G37*
D13*
X150509000Y-44196000D03*
D12*
G36*
X100336779Y-77059144D02*
G01*
X100359834Y-77062563D01*
X100382443Y-77068227D01*
X100404387Y-77076079D01*
X100425457Y-77086044D01*
X100445448Y-77098026D01*
X100464168Y-77111910D01*
X100481438Y-77127562D01*
X100497090Y-77144832D01*
X100510974Y-77163552D01*
X100522956Y-77183543D01*
X100532921Y-77204613D01*
X100540773Y-77226557D01*
X100546437Y-77249166D01*
X100549856Y-77272221D01*
X100551000Y-77295500D01*
X100551000Y-77870500D01*
X100549856Y-77893779D01*
X100546437Y-77916834D01*
X100540773Y-77939443D01*
X100532921Y-77961387D01*
X100522956Y-77982457D01*
X100510974Y-78002448D01*
X100497090Y-78021168D01*
X100481438Y-78038438D01*
X100464168Y-78054090D01*
X100445448Y-78067974D01*
X100425457Y-78079956D01*
X100404387Y-78089921D01*
X100382443Y-78097773D01*
X100359834Y-78103437D01*
X100336779Y-78106856D01*
X100313500Y-78108000D01*
X99838500Y-78108000D01*
X99815221Y-78106856D01*
X99792166Y-78103437D01*
X99769557Y-78097773D01*
X99747613Y-78089921D01*
X99726543Y-78079956D01*
X99706552Y-78067974D01*
X99687832Y-78054090D01*
X99670562Y-78038438D01*
X99654910Y-78021168D01*
X99641026Y-78002448D01*
X99629044Y-77982457D01*
X99619079Y-77961387D01*
X99611227Y-77939443D01*
X99605563Y-77916834D01*
X99602144Y-77893779D01*
X99601000Y-77870500D01*
X99601000Y-77295500D01*
X99602144Y-77272221D01*
X99605563Y-77249166D01*
X99611227Y-77226557D01*
X99619079Y-77204613D01*
X99629044Y-77183543D01*
X99641026Y-77163552D01*
X99654910Y-77144832D01*
X99670562Y-77127562D01*
X99687832Y-77111910D01*
X99706552Y-77098026D01*
X99726543Y-77086044D01*
X99747613Y-77076079D01*
X99769557Y-77068227D01*
X99792166Y-77062563D01*
X99815221Y-77059144D01*
X99838500Y-77058000D01*
X100313500Y-77058000D01*
X100336779Y-77059144D01*
X100336779Y-77059144D01*
G37*
D13*
X100076000Y-77583000D03*
D12*
G36*
X100336779Y-75309144D02*
G01*
X100359834Y-75312563D01*
X100382443Y-75318227D01*
X100404387Y-75326079D01*
X100425457Y-75336044D01*
X100445448Y-75348026D01*
X100464168Y-75361910D01*
X100481438Y-75377562D01*
X100497090Y-75394832D01*
X100510974Y-75413552D01*
X100522956Y-75433543D01*
X100532921Y-75454613D01*
X100540773Y-75476557D01*
X100546437Y-75499166D01*
X100549856Y-75522221D01*
X100551000Y-75545500D01*
X100551000Y-76120500D01*
X100549856Y-76143779D01*
X100546437Y-76166834D01*
X100540773Y-76189443D01*
X100532921Y-76211387D01*
X100522956Y-76232457D01*
X100510974Y-76252448D01*
X100497090Y-76271168D01*
X100481438Y-76288438D01*
X100464168Y-76304090D01*
X100445448Y-76317974D01*
X100425457Y-76329956D01*
X100404387Y-76339921D01*
X100382443Y-76347773D01*
X100359834Y-76353437D01*
X100336779Y-76356856D01*
X100313500Y-76358000D01*
X99838500Y-76358000D01*
X99815221Y-76356856D01*
X99792166Y-76353437D01*
X99769557Y-76347773D01*
X99747613Y-76339921D01*
X99726543Y-76329956D01*
X99706552Y-76317974D01*
X99687832Y-76304090D01*
X99670562Y-76288438D01*
X99654910Y-76271168D01*
X99641026Y-76252448D01*
X99629044Y-76232457D01*
X99619079Y-76211387D01*
X99611227Y-76189443D01*
X99605563Y-76166834D01*
X99602144Y-76143779D01*
X99601000Y-76120500D01*
X99601000Y-75545500D01*
X99602144Y-75522221D01*
X99605563Y-75499166D01*
X99611227Y-75476557D01*
X99619079Y-75454613D01*
X99629044Y-75433543D01*
X99641026Y-75413552D01*
X99654910Y-75394832D01*
X99670562Y-75377562D01*
X99687832Y-75361910D01*
X99706552Y-75348026D01*
X99726543Y-75336044D01*
X99747613Y-75326079D01*
X99769557Y-75318227D01*
X99792166Y-75312563D01*
X99815221Y-75309144D01*
X99838500Y-75308000D01*
X100313500Y-75308000D01*
X100336779Y-75309144D01*
X100336779Y-75309144D01*
G37*
D13*
X100076000Y-75833000D03*
D12*
G36*
X119069779Y-114842144D02*
G01*
X119092834Y-114845563D01*
X119115443Y-114851227D01*
X119137387Y-114859079D01*
X119158457Y-114869044D01*
X119178448Y-114881026D01*
X119197168Y-114894910D01*
X119214438Y-114910562D01*
X119230090Y-114927832D01*
X119243974Y-114946552D01*
X119255956Y-114966543D01*
X119265921Y-114987613D01*
X119273773Y-115009557D01*
X119279437Y-115032166D01*
X119282856Y-115055221D01*
X119284000Y-115078500D01*
X119284000Y-115553500D01*
X119282856Y-115576779D01*
X119279437Y-115599834D01*
X119273773Y-115622443D01*
X119265921Y-115644387D01*
X119255956Y-115665457D01*
X119243974Y-115685448D01*
X119230090Y-115704168D01*
X119214438Y-115721438D01*
X119197168Y-115737090D01*
X119178448Y-115750974D01*
X119158457Y-115762956D01*
X119137387Y-115772921D01*
X119115443Y-115780773D01*
X119092834Y-115786437D01*
X119069779Y-115789856D01*
X119046500Y-115791000D01*
X118471500Y-115791000D01*
X118448221Y-115789856D01*
X118425166Y-115786437D01*
X118402557Y-115780773D01*
X118380613Y-115772921D01*
X118359543Y-115762956D01*
X118339552Y-115750974D01*
X118320832Y-115737090D01*
X118303562Y-115721438D01*
X118287910Y-115704168D01*
X118274026Y-115685448D01*
X118262044Y-115665457D01*
X118252079Y-115644387D01*
X118244227Y-115622443D01*
X118238563Y-115599834D01*
X118235144Y-115576779D01*
X118234000Y-115553500D01*
X118234000Y-115078500D01*
X118235144Y-115055221D01*
X118238563Y-115032166D01*
X118244227Y-115009557D01*
X118252079Y-114987613D01*
X118262044Y-114966543D01*
X118274026Y-114946552D01*
X118287910Y-114927832D01*
X118303562Y-114910562D01*
X118320832Y-114894910D01*
X118339552Y-114881026D01*
X118359543Y-114869044D01*
X118380613Y-114859079D01*
X118402557Y-114851227D01*
X118425166Y-114845563D01*
X118448221Y-114842144D01*
X118471500Y-114841000D01*
X119046500Y-114841000D01*
X119069779Y-114842144D01*
X119069779Y-114842144D01*
G37*
D13*
X118759000Y-115316000D03*
D12*
G36*
X120819779Y-114842144D02*
G01*
X120842834Y-114845563D01*
X120865443Y-114851227D01*
X120887387Y-114859079D01*
X120908457Y-114869044D01*
X120928448Y-114881026D01*
X120947168Y-114894910D01*
X120964438Y-114910562D01*
X120980090Y-114927832D01*
X120993974Y-114946552D01*
X121005956Y-114966543D01*
X121015921Y-114987613D01*
X121023773Y-115009557D01*
X121029437Y-115032166D01*
X121032856Y-115055221D01*
X121034000Y-115078500D01*
X121034000Y-115553500D01*
X121032856Y-115576779D01*
X121029437Y-115599834D01*
X121023773Y-115622443D01*
X121015921Y-115644387D01*
X121005956Y-115665457D01*
X120993974Y-115685448D01*
X120980090Y-115704168D01*
X120964438Y-115721438D01*
X120947168Y-115737090D01*
X120928448Y-115750974D01*
X120908457Y-115762956D01*
X120887387Y-115772921D01*
X120865443Y-115780773D01*
X120842834Y-115786437D01*
X120819779Y-115789856D01*
X120796500Y-115791000D01*
X120221500Y-115791000D01*
X120198221Y-115789856D01*
X120175166Y-115786437D01*
X120152557Y-115780773D01*
X120130613Y-115772921D01*
X120109543Y-115762956D01*
X120089552Y-115750974D01*
X120070832Y-115737090D01*
X120053562Y-115721438D01*
X120037910Y-115704168D01*
X120024026Y-115685448D01*
X120012044Y-115665457D01*
X120002079Y-115644387D01*
X119994227Y-115622443D01*
X119988563Y-115599834D01*
X119985144Y-115576779D01*
X119984000Y-115553500D01*
X119984000Y-115078500D01*
X119985144Y-115055221D01*
X119988563Y-115032166D01*
X119994227Y-115009557D01*
X120002079Y-114987613D01*
X120012044Y-114966543D01*
X120024026Y-114946552D01*
X120037910Y-114927832D01*
X120053562Y-114910562D01*
X120070832Y-114894910D01*
X120089552Y-114881026D01*
X120109543Y-114869044D01*
X120130613Y-114859079D01*
X120152557Y-114851227D01*
X120175166Y-114845563D01*
X120198221Y-114842144D01*
X120221500Y-114841000D01*
X120796500Y-114841000D01*
X120819779Y-114842144D01*
X120819779Y-114842144D01*
G37*
D13*
X120509000Y-115316000D03*
D12*
G36*
X166376779Y-96391144D02*
G01*
X166399834Y-96394563D01*
X166422443Y-96400227D01*
X166444387Y-96408079D01*
X166465457Y-96418044D01*
X166485448Y-96430026D01*
X166504168Y-96443910D01*
X166521438Y-96459562D01*
X166537090Y-96476832D01*
X166550974Y-96495552D01*
X166562956Y-96515543D01*
X166572921Y-96536613D01*
X166580773Y-96558557D01*
X166586437Y-96581166D01*
X166589856Y-96604221D01*
X166591000Y-96627500D01*
X166591000Y-97202500D01*
X166589856Y-97225779D01*
X166586437Y-97248834D01*
X166580773Y-97271443D01*
X166572921Y-97293387D01*
X166562956Y-97314457D01*
X166550974Y-97334448D01*
X166537090Y-97353168D01*
X166521438Y-97370438D01*
X166504168Y-97386090D01*
X166485448Y-97399974D01*
X166465457Y-97411956D01*
X166444387Y-97421921D01*
X166422443Y-97429773D01*
X166399834Y-97435437D01*
X166376779Y-97438856D01*
X166353500Y-97440000D01*
X165878500Y-97440000D01*
X165855221Y-97438856D01*
X165832166Y-97435437D01*
X165809557Y-97429773D01*
X165787613Y-97421921D01*
X165766543Y-97411956D01*
X165746552Y-97399974D01*
X165727832Y-97386090D01*
X165710562Y-97370438D01*
X165694910Y-97353168D01*
X165681026Y-97334448D01*
X165669044Y-97314457D01*
X165659079Y-97293387D01*
X165651227Y-97271443D01*
X165645563Y-97248834D01*
X165642144Y-97225779D01*
X165641000Y-97202500D01*
X165641000Y-96627500D01*
X165642144Y-96604221D01*
X165645563Y-96581166D01*
X165651227Y-96558557D01*
X165659079Y-96536613D01*
X165669044Y-96515543D01*
X165681026Y-96495552D01*
X165694910Y-96476832D01*
X165710562Y-96459562D01*
X165727832Y-96443910D01*
X165746552Y-96430026D01*
X165766543Y-96418044D01*
X165787613Y-96408079D01*
X165809557Y-96400227D01*
X165832166Y-96394563D01*
X165855221Y-96391144D01*
X165878500Y-96390000D01*
X166353500Y-96390000D01*
X166376779Y-96391144D01*
X166376779Y-96391144D01*
G37*
D13*
X166116000Y-96915000D03*
D12*
G36*
X166376779Y-98141144D02*
G01*
X166399834Y-98144563D01*
X166422443Y-98150227D01*
X166444387Y-98158079D01*
X166465457Y-98168044D01*
X166485448Y-98180026D01*
X166504168Y-98193910D01*
X166521438Y-98209562D01*
X166537090Y-98226832D01*
X166550974Y-98245552D01*
X166562956Y-98265543D01*
X166572921Y-98286613D01*
X166580773Y-98308557D01*
X166586437Y-98331166D01*
X166589856Y-98354221D01*
X166591000Y-98377500D01*
X166591000Y-98952500D01*
X166589856Y-98975779D01*
X166586437Y-98998834D01*
X166580773Y-99021443D01*
X166572921Y-99043387D01*
X166562956Y-99064457D01*
X166550974Y-99084448D01*
X166537090Y-99103168D01*
X166521438Y-99120438D01*
X166504168Y-99136090D01*
X166485448Y-99149974D01*
X166465457Y-99161956D01*
X166444387Y-99171921D01*
X166422443Y-99179773D01*
X166399834Y-99185437D01*
X166376779Y-99188856D01*
X166353500Y-99190000D01*
X165878500Y-99190000D01*
X165855221Y-99188856D01*
X165832166Y-99185437D01*
X165809557Y-99179773D01*
X165787613Y-99171921D01*
X165766543Y-99161956D01*
X165746552Y-99149974D01*
X165727832Y-99136090D01*
X165710562Y-99120438D01*
X165694910Y-99103168D01*
X165681026Y-99084448D01*
X165669044Y-99064457D01*
X165659079Y-99043387D01*
X165651227Y-99021443D01*
X165645563Y-98998834D01*
X165642144Y-98975779D01*
X165641000Y-98952500D01*
X165641000Y-98377500D01*
X165642144Y-98354221D01*
X165645563Y-98331166D01*
X165651227Y-98308557D01*
X165659079Y-98286613D01*
X165669044Y-98265543D01*
X165681026Y-98245552D01*
X165694910Y-98226832D01*
X165710562Y-98209562D01*
X165727832Y-98193910D01*
X165746552Y-98180026D01*
X165766543Y-98168044D01*
X165787613Y-98158079D01*
X165809557Y-98150227D01*
X165832166Y-98144563D01*
X165855221Y-98141144D01*
X165878500Y-98140000D01*
X166353500Y-98140000D01*
X166376779Y-98141144D01*
X166376779Y-98141144D01*
G37*
D13*
X166116000Y-98665000D03*
D12*
G36*
X118928779Y-39404144D02*
G01*
X118951834Y-39407563D01*
X118974443Y-39413227D01*
X118996387Y-39421079D01*
X119017457Y-39431044D01*
X119037448Y-39443026D01*
X119056168Y-39456910D01*
X119073438Y-39472562D01*
X119089090Y-39489832D01*
X119102974Y-39508552D01*
X119114956Y-39528543D01*
X119124921Y-39549613D01*
X119132773Y-39571557D01*
X119138437Y-39594166D01*
X119141856Y-39617221D01*
X119143000Y-39640500D01*
X119143000Y-40115500D01*
X119141856Y-40138779D01*
X119138437Y-40161834D01*
X119132773Y-40184443D01*
X119124921Y-40206387D01*
X119114956Y-40227457D01*
X119102974Y-40247448D01*
X119089090Y-40266168D01*
X119073438Y-40283438D01*
X119056168Y-40299090D01*
X119037448Y-40312974D01*
X119017457Y-40324956D01*
X118996387Y-40334921D01*
X118974443Y-40342773D01*
X118951834Y-40348437D01*
X118928779Y-40351856D01*
X118905500Y-40353000D01*
X118330500Y-40353000D01*
X118307221Y-40351856D01*
X118284166Y-40348437D01*
X118261557Y-40342773D01*
X118239613Y-40334921D01*
X118218543Y-40324956D01*
X118198552Y-40312974D01*
X118179832Y-40299090D01*
X118162562Y-40283438D01*
X118146910Y-40266168D01*
X118133026Y-40247448D01*
X118121044Y-40227457D01*
X118111079Y-40206387D01*
X118103227Y-40184443D01*
X118097563Y-40161834D01*
X118094144Y-40138779D01*
X118093000Y-40115500D01*
X118093000Y-39640500D01*
X118094144Y-39617221D01*
X118097563Y-39594166D01*
X118103227Y-39571557D01*
X118111079Y-39549613D01*
X118121044Y-39528543D01*
X118133026Y-39508552D01*
X118146910Y-39489832D01*
X118162562Y-39472562D01*
X118179832Y-39456910D01*
X118198552Y-39443026D01*
X118218543Y-39431044D01*
X118239613Y-39421079D01*
X118261557Y-39413227D01*
X118284166Y-39407563D01*
X118307221Y-39404144D01*
X118330500Y-39403000D01*
X118905500Y-39403000D01*
X118928779Y-39404144D01*
X118928779Y-39404144D01*
G37*
D13*
X118618000Y-39878000D03*
D12*
G36*
X120678779Y-39404144D02*
G01*
X120701834Y-39407563D01*
X120724443Y-39413227D01*
X120746387Y-39421079D01*
X120767457Y-39431044D01*
X120787448Y-39443026D01*
X120806168Y-39456910D01*
X120823438Y-39472562D01*
X120839090Y-39489832D01*
X120852974Y-39508552D01*
X120864956Y-39528543D01*
X120874921Y-39549613D01*
X120882773Y-39571557D01*
X120888437Y-39594166D01*
X120891856Y-39617221D01*
X120893000Y-39640500D01*
X120893000Y-40115500D01*
X120891856Y-40138779D01*
X120888437Y-40161834D01*
X120882773Y-40184443D01*
X120874921Y-40206387D01*
X120864956Y-40227457D01*
X120852974Y-40247448D01*
X120839090Y-40266168D01*
X120823438Y-40283438D01*
X120806168Y-40299090D01*
X120787448Y-40312974D01*
X120767457Y-40324956D01*
X120746387Y-40334921D01*
X120724443Y-40342773D01*
X120701834Y-40348437D01*
X120678779Y-40351856D01*
X120655500Y-40353000D01*
X120080500Y-40353000D01*
X120057221Y-40351856D01*
X120034166Y-40348437D01*
X120011557Y-40342773D01*
X119989613Y-40334921D01*
X119968543Y-40324956D01*
X119948552Y-40312974D01*
X119929832Y-40299090D01*
X119912562Y-40283438D01*
X119896910Y-40266168D01*
X119883026Y-40247448D01*
X119871044Y-40227457D01*
X119861079Y-40206387D01*
X119853227Y-40184443D01*
X119847563Y-40161834D01*
X119844144Y-40138779D01*
X119843000Y-40115500D01*
X119843000Y-39640500D01*
X119844144Y-39617221D01*
X119847563Y-39594166D01*
X119853227Y-39571557D01*
X119861079Y-39549613D01*
X119871044Y-39528543D01*
X119883026Y-39508552D01*
X119896910Y-39489832D01*
X119912562Y-39472562D01*
X119929832Y-39456910D01*
X119948552Y-39443026D01*
X119968543Y-39431044D01*
X119989613Y-39421079D01*
X120011557Y-39413227D01*
X120034166Y-39407563D01*
X120057221Y-39404144D01*
X120080500Y-39403000D01*
X120655500Y-39403000D01*
X120678779Y-39404144D01*
X120678779Y-39404144D01*
G37*
D13*
X120368000Y-39878000D03*
D12*
G36*
X160697779Y-52104144D02*
G01*
X160720834Y-52107563D01*
X160743443Y-52113227D01*
X160765387Y-52121079D01*
X160786457Y-52131044D01*
X160806448Y-52143026D01*
X160825168Y-52156910D01*
X160842438Y-52172562D01*
X160858090Y-52189832D01*
X160871974Y-52208552D01*
X160883956Y-52228543D01*
X160893921Y-52249613D01*
X160901773Y-52271557D01*
X160907437Y-52294166D01*
X160910856Y-52317221D01*
X160912000Y-52340500D01*
X160912000Y-52815500D01*
X160910856Y-52838779D01*
X160907437Y-52861834D01*
X160901773Y-52884443D01*
X160893921Y-52906387D01*
X160883956Y-52927457D01*
X160871974Y-52947448D01*
X160858090Y-52966168D01*
X160842438Y-52983438D01*
X160825168Y-52999090D01*
X160806448Y-53012974D01*
X160786457Y-53024956D01*
X160765387Y-53034921D01*
X160743443Y-53042773D01*
X160720834Y-53048437D01*
X160697779Y-53051856D01*
X160674500Y-53053000D01*
X160099500Y-53053000D01*
X160076221Y-53051856D01*
X160053166Y-53048437D01*
X160030557Y-53042773D01*
X160008613Y-53034921D01*
X159987543Y-53024956D01*
X159967552Y-53012974D01*
X159948832Y-52999090D01*
X159931562Y-52983438D01*
X159915910Y-52966168D01*
X159902026Y-52947448D01*
X159890044Y-52927457D01*
X159880079Y-52906387D01*
X159872227Y-52884443D01*
X159866563Y-52861834D01*
X159863144Y-52838779D01*
X159862000Y-52815500D01*
X159862000Y-52340500D01*
X159863144Y-52317221D01*
X159866563Y-52294166D01*
X159872227Y-52271557D01*
X159880079Y-52249613D01*
X159890044Y-52228543D01*
X159902026Y-52208552D01*
X159915910Y-52189832D01*
X159931562Y-52172562D01*
X159948832Y-52156910D01*
X159967552Y-52143026D01*
X159987543Y-52131044D01*
X160008613Y-52121079D01*
X160030557Y-52113227D01*
X160053166Y-52107563D01*
X160076221Y-52104144D01*
X160099500Y-52103000D01*
X160674500Y-52103000D01*
X160697779Y-52104144D01*
X160697779Y-52104144D01*
G37*
D13*
X160387000Y-52578000D03*
D12*
G36*
X158947779Y-52104144D02*
G01*
X158970834Y-52107563D01*
X158993443Y-52113227D01*
X159015387Y-52121079D01*
X159036457Y-52131044D01*
X159056448Y-52143026D01*
X159075168Y-52156910D01*
X159092438Y-52172562D01*
X159108090Y-52189832D01*
X159121974Y-52208552D01*
X159133956Y-52228543D01*
X159143921Y-52249613D01*
X159151773Y-52271557D01*
X159157437Y-52294166D01*
X159160856Y-52317221D01*
X159162000Y-52340500D01*
X159162000Y-52815500D01*
X159160856Y-52838779D01*
X159157437Y-52861834D01*
X159151773Y-52884443D01*
X159143921Y-52906387D01*
X159133956Y-52927457D01*
X159121974Y-52947448D01*
X159108090Y-52966168D01*
X159092438Y-52983438D01*
X159075168Y-52999090D01*
X159056448Y-53012974D01*
X159036457Y-53024956D01*
X159015387Y-53034921D01*
X158993443Y-53042773D01*
X158970834Y-53048437D01*
X158947779Y-53051856D01*
X158924500Y-53053000D01*
X158349500Y-53053000D01*
X158326221Y-53051856D01*
X158303166Y-53048437D01*
X158280557Y-53042773D01*
X158258613Y-53034921D01*
X158237543Y-53024956D01*
X158217552Y-53012974D01*
X158198832Y-52999090D01*
X158181562Y-52983438D01*
X158165910Y-52966168D01*
X158152026Y-52947448D01*
X158140044Y-52927457D01*
X158130079Y-52906387D01*
X158122227Y-52884443D01*
X158116563Y-52861834D01*
X158113144Y-52838779D01*
X158112000Y-52815500D01*
X158112000Y-52340500D01*
X158113144Y-52317221D01*
X158116563Y-52294166D01*
X158122227Y-52271557D01*
X158130079Y-52249613D01*
X158140044Y-52228543D01*
X158152026Y-52208552D01*
X158165910Y-52189832D01*
X158181562Y-52172562D01*
X158198832Y-52156910D01*
X158217552Y-52143026D01*
X158237543Y-52131044D01*
X158258613Y-52121079D01*
X158280557Y-52113227D01*
X158303166Y-52107563D01*
X158326221Y-52104144D01*
X158349500Y-52103000D01*
X158924500Y-52103000D01*
X158947779Y-52104144D01*
X158947779Y-52104144D01*
G37*
D13*
X158637000Y-52578000D03*
D12*
G36*
X97705779Y-62010144D02*
G01*
X97728834Y-62013563D01*
X97751443Y-62019227D01*
X97773387Y-62027079D01*
X97794457Y-62037044D01*
X97814448Y-62049026D01*
X97833168Y-62062910D01*
X97850438Y-62078562D01*
X97866090Y-62095832D01*
X97879974Y-62114552D01*
X97891956Y-62134543D01*
X97901921Y-62155613D01*
X97909773Y-62177557D01*
X97915437Y-62200166D01*
X97918856Y-62223221D01*
X97920000Y-62246500D01*
X97920000Y-62721500D01*
X97918856Y-62744779D01*
X97915437Y-62767834D01*
X97909773Y-62790443D01*
X97901921Y-62812387D01*
X97891956Y-62833457D01*
X97879974Y-62853448D01*
X97866090Y-62872168D01*
X97850438Y-62889438D01*
X97833168Y-62905090D01*
X97814448Y-62918974D01*
X97794457Y-62930956D01*
X97773387Y-62940921D01*
X97751443Y-62948773D01*
X97728834Y-62954437D01*
X97705779Y-62957856D01*
X97682500Y-62959000D01*
X97107500Y-62959000D01*
X97084221Y-62957856D01*
X97061166Y-62954437D01*
X97038557Y-62948773D01*
X97016613Y-62940921D01*
X96995543Y-62930956D01*
X96975552Y-62918974D01*
X96956832Y-62905090D01*
X96939562Y-62889438D01*
X96923910Y-62872168D01*
X96910026Y-62853448D01*
X96898044Y-62833457D01*
X96888079Y-62812387D01*
X96880227Y-62790443D01*
X96874563Y-62767834D01*
X96871144Y-62744779D01*
X96870000Y-62721500D01*
X96870000Y-62246500D01*
X96871144Y-62223221D01*
X96874563Y-62200166D01*
X96880227Y-62177557D01*
X96888079Y-62155613D01*
X96898044Y-62134543D01*
X96910026Y-62114552D01*
X96923910Y-62095832D01*
X96939562Y-62078562D01*
X96956832Y-62062910D01*
X96975552Y-62049026D01*
X96995543Y-62037044D01*
X97016613Y-62027079D01*
X97038557Y-62019227D01*
X97061166Y-62013563D01*
X97084221Y-62010144D01*
X97107500Y-62009000D01*
X97682500Y-62009000D01*
X97705779Y-62010144D01*
X97705779Y-62010144D01*
G37*
D13*
X97395000Y-62484000D03*
D12*
G36*
X95955779Y-62010144D02*
G01*
X95978834Y-62013563D01*
X96001443Y-62019227D01*
X96023387Y-62027079D01*
X96044457Y-62037044D01*
X96064448Y-62049026D01*
X96083168Y-62062910D01*
X96100438Y-62078562D01*
X96116090Y-62095832D01*
X96129974Y-62114552D01*
X96141956Y-62134543D01*
X96151921Y-62155613D01*
X96159773Y-62177557D01*
X96165437Y-62200166D01*
X96168856Y-62223221D01*
X96170000Y-62246500D01*
X96170000Y-62721500D01*
X96168856Y-62744779D01*
X96165437Y-62767834D01*
X96159773Y-62790443D01*
X96151921Y-62812387D01*
X96141956Y-62833457D01*
X96129974Y-62853448D01*
X96116090Y-62872168D01*
X96100438Y-62889438D01*
X96083168Y-62905090D01*
X96064448Y-62918974D01*
X96044457Y-62930956D01*
X96023387Y-62940921D01*
X96001443Y-62948773D01*
X95978834Y-62954437D01*
X95955779Y-62957856D01*
X95932500Y-62959000D01*
X95357500Y-62959000D01*
X95334221Y-62957856D01*
X95311166Y-62954437D01*
X95288557Y-62948773D01*
X95266613Y-62940921D01*
X95245543Y-62930956D01*
X95225552Y-62918974D01*
X95206832Y-62905090D01*
X95189562Y-62889438D01*
X95173910Y-62872168D01*
X95160026Y-62853448D01*
X95148044Y-62833457D01*
X95138079Y-62812387D01*
X95130227Y-62790443D01*
X95124563Y-62767834D01*
X95121144Y-62744779D01*
X95120000Y-62721500D01*
X95120000Y-62246500D01*
X95121144Y-62223221D01*
X95124563Y-62200166D01*
X95130227Y-62177557D01*
X95138079Y-62155613D01*
X95148044Y-62134543D01*
X95160026Y-62114552D01*
X95173910Y-62095832D01*
X95189562Y-62078562D01*
X95206832Y-62062910D01*
X95225552Y-62049026D01*
X95245543Y-62037044D01*
X95266613Y-62027079D01*
X95288557Y-62019227D01*
X95311166Y-62013563D01*
X95334221Y-62010144D01*
X95357500Y-62009000D01*
X95932500Y-62009000D01*
X95955779Y-62010144D01*
X95955779Y-62010144D01*
G37*
D13*
X95645000Y-62484000D03*
D12*
G36*
X110913779Y-110270144D02*
G01*
X110936834Y-110273563D01*
X110959443Y-110279227D01*
X110981387Y-110287079D01*
X111002457Y-110297044D01*
X111022448Y-110309026D01*
X111041168Y-110322910D01*
X111058438Y-110338562D01*
X111074090Y-110355832D01*
X111087974Y-110374552D01*
X111099956Y-110394543D01*
X111109921Y-110415613D01*
X111117773Y-110437557D01*
X111123437Y-110460166D01*
X111126856Y-110483221D01*
X111128000Y-110506500D01*
X111128000Y-110981500D01*
X111126856Y-111004779D01*
X111123437Y-111027834D01*
X111117773Y-111050443D01*
X111109921Y-111072387D01*
X111099956Y-111093457D01*
X111087974Y-111113448D01*
X111074090Y-111132168D01*
X111058438Y-111149438D01*
X111041168Y-111165090D01*
X111022448Y-111178974D01*
X111002457Y-111190956D01*
X110981387Y-111200921D01*
X110959443Y-111208773D01*
X110936834Y-111214437D01*
X110913779Y-111217856D01*
X110890500Y-111219000D01*
X110315500Y-111219000D01*
X110292221Y-111217856D01*
X110269166Y-111214437D01*
X110246557Y-111208773D01*
X110224613Y-111200921D01*
X110203543Y-111190956D01*
X110183552Y-111178974D01*
X110164832Y-111165090D01*
X110147562Y-111149438D01*
X110131910Y-111132168D01*
X110118026Y-111113448D01*
X110106044Y-111093457D01*
X110096079Y-111072387D01*
X110088227Y-111050443D01*
X110082563Y-111027834D01*
X110079144Y-111004779D01*
X110078000Y-110981500D01*
X110078000Y-110506500D01*
X110079144Y-110483221D01*
X110082563Y-110460166D01*
X110088227Y-110437557D01*
X110096079Y-110415613D01*
X110106044Y-110394543D01*
X110118026Y-110374552D01*
X110131910Y-110355832D01*
X110147562Y-110338562D01*
X110164832Y-110322910D01*
X110183552Y-110309026D01*
X110203543Y-110297044D01*
X110224613Y-110287079D01*
X110246557Y-110279227D01*
X110269166Y-110273563D01*
X110292221Y-110270144D01*
X110315500Y-110269000D01*
X110890500Y-110269000D01*
X110913779Y-110270144D01*
X110913779Y-110270144D01*
G37*
D13*
X110603000Y-110744000D03*
D12*
G36*
X109163779Y-110270144D02*
G01*
X109186834Y-110273563D01*
X109209443Y-110279227D01*
X109231387Y-110287079D01*
X109252457Y-110297044D01*
X109272448Y-110309026D01*
X109291168Y-110322910D01*
X109308438Y-110338562D01*
X109324090Y-110355832D01*
X109337974Y-110374552D01*
X109349956Y-110394543D01*
X109359921Y-110415613D01*
X109367773Y-110437557D01*
X109373437Y-110460166D01*
X109376856Y-110483221D01*
X109378000Y-110506500D01*
X109378000Y-110981500D01*
X109376856Y-111004779D01*
X109373437Y-111027834D01*
X109367773Y-111050443D01*
X109359921Y-111072387D01*
X109349956Y-111093457D01*
X109337974Y-111113448D01*
X109324090Y-111132168D01*
X109308438Y-111149438D01*
X109291168Y-111165090D01*
X109272448Y-111178974D01*
X109252457Y-111190956D01*
X109231387Y-111200921D01*
X109209443Y-111208773D01*
X109186834Y-111214437D01*
X109163779Y-111217856D01*
X109140500Y-111219000D01*
X108565500Y-111219000D01*
X108542221Y-111217856D01*
X108519166Y-111214437D01*
X108496557Y-111208773D01*
X108474613Y-111200921D01*
X108453543Y-111190956D01*
X108433552Y-111178974D01*
X108414832Y-111165090D01*
X108397562Y-111149438D01*
X108381910Y-111132168D01*
X108368026Y-111113448D01*
X108356044Y-111093457D01*
X108346079Y-111072387D01*
X108338227Y-111050443D01*
X108332563Y-111027834D01*
X108329144Y-111004779D01*
X108328000Y-110981500D01*
X108328000Y-110506500D01*
X108329144Y-110483221D01*
X108332563Y-110460166D01*
X108338227Y-110437557D01*
X108346079Y-110415613D01*
X108356044Y-110394543D01*
X108368026Y-110374552D01*
X108381910Y-110355832D01*
X108397562Y-110338562D01*
X108414832Y-110322910D01*
X108433552Y-110309026D01*
X108453543Y-110297044D01*
X108474613Y-110287079D01*
X108496557Y-110279227D01*
X108519166Y-110273563D01*
X108542221Y-110270144D01*
X108565500Y-110269000D01*
X109140500Y-110269000D01*
X109163779Y-110270144D01*
X109163779Y-110270144D01*
G37*
D13*
X108853000Y-110744000D03*
D12*
G36*
X152569779Y-109762144D02*
G01*
X152592834Y-109765563D01*
X152615443Y-109771227D01*
X152637387Y-109779079D01*
X152658457Y-109789044D01*
X152678448Y-109801026D01*
X152697168Y-109814910D01*
X152714438Y-109830562D01*
X152730090Y-109847832D01*
X152743974Y-109866552D01*
X152755956Y-109886543D01*
X152765921Y-109907613D01*
X152773773Y-109929557D01*
X152779437Y-109952166D01*
X152782856Y-109975221D01*
X152784000Y-109998500D01*
X152784000Y-110473500D01*
X152782856Y-110496779D01*
X152779437Y-110519834D01*
X152773773Y-110542443D01*
X152765921Y-110564387D01*
X152755956Y-110585457D01*
X152743974Y-110605448D01*
X152730090Y-110624168D01*
X152714438Y-110641438D01*
X152697168Y-110657090D01*
X152678448Y-110670974D01*
X152658457Y-110682956D01*
X152637387Y-110692921D01*
X152615443Y-110700773D01*
X152592834Y-110706437D01*
X152569779Y-110709856D01*
X152546500Y-110711000D01*
X151971500Y-110711000D01*
X151948221Y-110709856D01*
X151925166Y-110706437D01*
X151902557Y-110700773D01*
X151880613Y-110692921D01*
X151859543Y-110682956D01*
X151839552Y-110670974D01*
X151820832Y-110657090D01*
X151803562Y-110641438D01*
X151787910Y-110624168D01*
X151774026Y-110605448D01*
X151762044Y-110585457D01*
X151752079Y-110564387D01*
X151744227Y-110542443D01*
X151738563Y-110519834D01*
X151735144Y-110496779D01*
X151734000Y-110473500D01*
X151734000Y-109998500D01*
X151735144Y-109975221D01*
X151738563Y-109952166D01*
X151744227Y-109929557D01*
X151752079Y-109907613D01*
X151762044Y-109886543D01*
X151774026Y-109866552D01*
X151787910Y-109847832D01*
X151803562Y-109830562D01*
X151820832Y-109814910D01*
X151839552Y-109801026D01*
X151859543Y-109789044D01*
X151880613Y-109779079D01*
X151902557Y-109771227D01*
X151925166Y-109765563D01*
X151948221Y-109762144D01*
X151971500Y-109761000D01*
X152546500Y-109761000D01*
X152569779Y-109762144D01*
X152569779Y-109762144D01*
G37*
D13*
X152259000Y-110236000D03*
D12*
G36*
X150819779Y-109762144D02*
G01*
X150842834Y-109765563D01*
X150865443Y-109771227D01*
X150887387Y-109779079D01*
X150908457Y-109789044D01*
X150928448Y-109801026D01*
X150947168Y-109814910D01*
X150964438Y-109830562D01*
X150980090Y-109847832D01*
X150993974Y-109866552D01*
X151005956Y-109886543D01*
X151015921Y-109907613D01*
X151023773Y-109929557D01*
X151029437Y-109952166D01*
X151032856Y-109975221D01*
X151034000Y-109998500D01*
X151034000Y-110473500D01*
X151032856Y-110496779D01*
X151029437Y-110519834D01*
X151023773Y-110542443D01*
X151015921Y-110564387D01*
X151005956Y-110585457D01*
X150993974Y-110605448D01*
X150980090Y-110624168D01*
X150964438Y-110641438D01*
X150947168Y-110657090D01*
X150928448Y-110670974D01*
X150908457Y-110682956D01*
X150887387Y-110692921D01*
X150865443Y-110700773D01*
X150842834Y-110706437D01*
X150819779Y-110709856D01*
X150796500Y-110711000D01*
X150221500Y-110711000D01*
X150198221Y-110709856D01*
X150175166Y-110706437D01*
X150152557Y-110700773D01*
X150130613Y-110692921D01*
X150109543Y-110682956D01*
X150089552Y-110670974D01*
X150070832Y-110657090D01*
X150053562Y-110641438D01*
X150037910Y-110624168D01*
X150024026Y-110605448D01*
X150012044Y-110585457D01*
X150002079Y-110564387D01*
X149994227Y-110542443D01*
X149988563Y-110519834D01*
X149985144Y-110496779D01*
X149984000Y-110473500D01*
X149984000Y-109998500D01*
X149985144Y-109975221D01*
X149988563Y-109952166D01*
X149994227Y-109929557D01*
X150002079Y-109907613D01*
X150012044Y-109886543D01*
X150024026Y-109866552D01*
X150037910Y-109847832D01*
X150053562Y-109830562D01*
X150070832Y-109814910D01*
X150089552Y-109801026D01*
X150109543Y-109789044D01*
X150130613Y-109779079D01*
X150152557Y-109771227D01*
X150175166Y-109765563D01*
X150198221Y-109762144D01*
X150221500Y-109761000D01*
X150796500Y-109761000D01*
X150819779Y-109762144D01*
X150819779Y-109762144D01*
G37*
D13*
X150509000Y-110236000D03*
D12*
G36*
X131741779Y-37372144D02*
G01*
X131764834Y-37375563D01*
X131787443Y-37381227D01*
X131809387Y-37389079D01*
X131830457Y-37399044D01*
X131850448Y-37411026D01*
X131869168Y-37424910D01*
X131886438Y-37440562D01*
X131902090Y-37457832D01*
X131915974Y-37476552D01*
X131927956Y-37496543D01*
X131937921Y-37517613D01*
X131945773Y-37539557D01*
X131951437Y-37562166D01*
X131954856Y-37585221D01*
X131956000Y-37608500D01*
X131956000Y-38083500D01*
X131954856Y-38106779D01*
X131951437Y-38129834D01*
X131945773Y-38152443D01*
X131937921Y-38174387D01*
X131927956Y-38195457D01*
X131915974Y-38215448D01*
X131902090Y-38234168D01*
X131886438Y-38251438D01*
X131869168Y-38267090D01*
X131850448Y-38280974D01*
X131830457Y-38292956D01*
X131809387Y-38302921D01*
X131787443Y-38310773D01*
X131764834Y-38316437D01*
X131741779Y-38319856D01*
X131718500Y-38321000D01*
X131143500Y-38321000D01*
X131120221Y-38319856D01*
X131097166Y-38316437D01*
X131074557Y-38310773D01*
X131052613Y-38302921D01*
X131031543Y-38292956D01*
X131011552Y-38280974D01*
X130992832Y-38267090D01*
X130975562Y-38251438D01*
X130959910Y-38234168D01*
X130946026Y-38215448D01*
X130934044Y-38195457D01*
X130924079Y-38174387D01*
X130916227Y-38152443D01*
X130910563Y-38129834D01*
X130907144Y-38106779D01*
X130906000Y-38083500D01*
X130906000Y-37608500D01*
X130907144Y-37585221D01*
X130910563Y-37562166D01*
X130916227Y-37539557D01*
X130924079Y-37517613D01*
X130934044Y-37496543D01*
X130946026Y-37476552D01*
X130959910Y-37457832D01*
X130975562Y-37440562D01*
X130992832Y-37424910D01*
X131011552Y-37411026D01*
X131031543Y-37399044D01*
X131052613Y-37389079D01*
X131074557Y-37381227D01*
X131097166Y-37375563D01*
X131120221Y-37372144D01*
X131143500Y-37371000D01*
X131718500Y-37371000D01*
X131741779Y-37372144D01*
X131741779Y-37372144D01*
G37*
D13*
X131431000Y-37846000D03*
D12*
G36*
X129991779Y-37372144D02*
G01*
X130014834Y-37375563D01*
X130037443Y-37381227D01*
X130059387Y-37389079D01*
X130080457Y-37399044D01*
X130100448Y-37411026D01*
X130119168Y-37424910D01*
X130136438Y-37440562D01*
X130152090Y-37457832D01*
X130165974Y-37476552D01*
X130177956Y-37496543D01*
X130187921Y-37517613D01*
X130195773Y-37539557D01*
X130201437Y-37562166D01*
X130204856Y-37585221D01*
X130206000Y-37608500D01*
X130206000Y-38083500D01*
X130204856Y-38106779D01*
X130201437Y-38129834D01*
X130195773Y-38152443D01*
X130187921Y-38174387D01*
X130177956Y-38195457D01*
X130165974Y-38215448D01*
X130152090Y-38234168D01*
X130136438Y-38251438D01*
X130119168Y-38267090D01*
X130100448Y-38280974D01*
X130080457Y-38292956D01*
X130059387Y-38302921D01*
X130037443Y-38310773D01*
X130014834Y-38316437D01*
X129991779Y-38319856D01*
X129968500Y-38321000D01*
X129393500Y-38321000D01*
X129370221Y-38319856D01*
X129347166Y-38316437D01*
X129324557Y-38310773D01*
X129302613Y-38302921D01*
X129281543Y-38292956D01*
X129261552Y-38280974D01*
X129242832Y-38267090D01*
X129225562Y-38251438D01*
X129209910Y-38234168D01*
X129196026Y-38215448D01*
X129184044Y-38195457D01*
X129174079Y-38174387D01*
X129166227Y-38152443D01*
X129160563Y-38129834D01*
X129157144Y-38106779D01*
X129156000Y-38083500D01*
X129156000Y-37608500D01*
X129157144Y-37585221D01*
X129160563Y-37562166D01*
X129166227Y-37539557D01*
X129174079Y-37517613D01*
X129184044Y-37496543D01*
X129196026Y-37476552D01*
X129209910Y-37457832D01*
X129225562Y-37440562D01*
X129242832Y-37424910D01*
X129261552Y-37411026D01*
X129281543Y-37399044D01*
X129302613Y-37389079D01*
X129324557Y-37381227D01*
X129347166Y-37375563D01*
X129370221Y-37372144D01*
X129393500Y-37371000D01*
X129968500Y-37371000D01*
X129991779Y-37372144D01*
X129991779Y-37372144D01*
G37*
D13*
X129681000Y-37846000D03*
D12*
G36*
X159010779Y-67153144D02*
G01*
X159033834Y-67156563D01*
X159056443Y-67162227D01*
X159078387Y-67170079D01*
X159099457Y-67180044D01*
X159119448Y-67192026D01*
X159138168Y-67205910D01*
X159155438Y-67221562D01*
X159171090Y-67238832D01*
X159184974Y-67257552D01*
X159196956Y-67277543D01*
X159206921Y-67298613D01*
X159214773Y-67320557D01*
X159220437Y-67343166D01*
X159223856Y-67366221D01*
X159225000Y-67389500D01*
X159225000Y-67964500D01*
X159223856Y-67987779D01*
X159220437Y-68010834D01*
X159214773Y-68033443D01*
X159206921Y-68055387D01*
X159196956Y-68076457D01*
X159184974Y-68096448D01*
X159171090Y-68115168D01*
X159155438Y-68132438D01*
X159138168Y-68148090D01*
X159119448Y-68161974D01*
X159099457Y-68173956D01*
X159078387Y-68183921D01*
X159056443Y-68191773D01*
X159033834Y-68197437D01*
X159010779Y-68200856D01*
X158987500Y-68202000D01*
X158512500Y-68202000D01*
X158489221Y-68200856D01*
X158466166Y-68197437D01*
X158443557Y-68191773D01*
X158421613Y-68183921D01*
X158400543Y-68173956D01*
X158380552Y-68161974D01*
X158361832Y-68148090D01*
X158344562Y-68132438D01*
X158328910Y-68115168D01*
X158315026Y-68096448D01*
X158303044Y-68076457D01*
X158293079Y-68055387D01*
X158285227Y-68033443D01*
X158279563Y-68010834D01*
X158276144Y-67987779D01*
X158275000Y-67964500D01*
X158275000Y-67389500D01*
X158276144Y-67366221D01*
X158279563Y-67343166D01*
X158285227Y-67320557D01*
X158293079Y-67298613D01*
X158303044Y-67277543D01*
X158315026Y-67257552D01*
X158328910Y-67238832D01*
X158344562Y-67221562D01*
X158361832Y-67205910D01*
X158380552Y-67192026D01*
X158400543Y-67180044D01*
X158421613Y-67170079D01*
X158443557Y-67162227D01*
X158466166Y-67156563D01*
X158489221Y-67153144D01*
X158512500Y-67152000D01*
X158987500Y-67152000D01*
X159010779Y-67153144D01*
X159010779Y-67153144D01*
G37*
D13*
X158750000Y-67677000D03*
D12*
G36*
X159010779Y-65403144D02*
G01*
X159033834Y-65406563D01*
X159056443Y-65412227D01*
X159078387Y-65420079D01*
X159099457Y-65430044D01*
X159119448Y-65442026D01*
X159138168Y-65455910D01*
X159155438Y-65471562D01*
X159171090Y-65488832D01*
X159184974Y-65507552D01*
X159196956Y-65527543D01*
X159206921Y-65548613D01*
X159214773Y-65570557D01*
X159220437Y-65593166D01*
X159223856Y-65616221D01*
X159225000Y-65639500D01*
X159225000Y-66214500D01*
X159223856Y-66237779D01*
X159220437Y-66260834D01*
X159214773Y-66283443D01*
X159206921Y-66305387D01*
X159196956Y-66326457D01*
X159184974Y-66346448D01*
X159171090Y-66365168D01*
X159155438Y-66382438D01*
X159138168Y-66398090D01*
X159119448Y-66411974D01*
X159099457Y-66423956D01*
X159078387Y-66433921D01*
X159056443Y-66441773D01*
X159033834Y-66447437D01*
X159010779Y-66450856D01*
X158987500Y-66452000D01*
X158512500Y-66452000D01*
X158489221Y-66450856D01*
X158466166Y-66447437D01*
X158443557Y-66441773D01*
X158421613Y-66433921D01*
X158400543Y-66423956D01*
X158380552Y-66411974D01*
X158361832Y-66398090D01*
X158344562Y-66382438D01*
X158328910Y-66365168D01*
X158315026Y-66346448D01*
X158303044Y-66326457D01*
X158293079Y-66305387D01*
X158285227Y-66283443D01*
X158279563Y-66260834D01*
X158276144Y-66237779D01*
X158275000Y-66214500D01*
X158275000Y-65639500D01*
X158276144Y-65616221D01*
X158279563Y-65593166D01*
X158285227Y-65570557D01*
X158293079Y-65548613D01*
X158303044Y-65527543D01*
X158315026Y-65507552D01*
X158328910Y-65488832D01*
X158344562Y-65471562D01*
X158361832Y-65455910D01*
X158380552Y-65442026D01*
X158400543Y-65430044D01*
X158421613Y-65420079D01*
X158443557Y-65412227D01*
X158466166Y-65406563D01*
X158489221Y-65403144D01*
X158512500Y-65402000D01*
X158987500Y-65402000D01*
X159010779Y-65403144D01*
X159010779Y-65403144D01*
G37*
D13*
X158750000Y-65927000D03*
D12*
G36*
X101035779Y-52104144D02*
G01*
X101058834Y-52107563D01*
X101081443Y-52113227D01*
X101103387Y-52121079D01*
X101124457Y-52131044D01*
X101144448Y-52143026D01*
X101163168Y-52156910D01*
X101180438Y-52172562D01*
X101196090Y-52189832D01*
X101209974Y-52208552D01*
X101221956Y-52228543D01*
X101231921Y-52249613D01*
X101239773Y-52271557D01*
X101245437Y-52294166D01*
X101248856Y-52317221D01*
X101250000Y-52340500D01*
X101250000Y-52815500D01*
X101248856Y-52838779D01*
X101245437Y-52861834D01*
X101239773Y-52884443D01*
X101231921Y-52906387D01*
X101221956Y-52927457D01*
X101209974Y-52947448D01*
X101196090Y-52966168D01*
X101180438Y-52983438D01*
X101163168Y-52999090D01*
X101144448Y-53012974D01*
X101124457Y-53024956D01*
X101103387Y-53034921D01*
X101081443Y-53042773D01*
X101058834Y-53048437D01*
X101035779Y-53051856D01*
X101012500Y-53053000D01*
X100437500Y-53053000D01*
X100414221Y-53051856D01*
X100391166Y-53048437D01*
X100368557Y-53042773D01*
X100346613Y-53034921D01*
X100325543Y-53024956D01*
X100305552Y-53012974D01*
X100286832Y-52999090D01*
X100269562Y-52983438D01*
X100253910Y-52966168D01*
X100240026Y-52947448D01*
X100228044Y-52927457D01*
X100218079Y-52906387D01*
X100210227Y-52884443D01*
X100204563Y-52861834D01*
X100201144Y-52838779D01*
X100200000Y-52815500D01*
X100200000Y-52340500D01*
X100201144Y-52317221D01*
X100204563Y-52294166D01*
X100210227Y-52271557D01*
X100218079Y-52249613D01*
X100228044Y-52228543D01*
X100240026Y-52208552D01*
X100253910Y-52189832D01*
X100269562Y-52172562D01*
X100286832Y-52156910D01*
X100305552Y-52143026D01*
X100325543Y-52131044D01*
X100346613Y-52121079D01*
X100368557Y-52113227D01*
X100391166Y-52107563D01*
X100414221Y-52104144D01*
X100437500Y-52103000D01*
X101012500Y-52103000D01*
X101035779Y-52104144D01*
X101035779Y-52104144D01*
G37*
D13*
X100725000Y-52578000D03*
D12*
G36*
X102785779Y-52104144D02*
G01*
X102808834Y-52107563D01*
X102831443Y-52113227D01*
X102853387Y-52121079D01*
X102874457Y-52131044D01*
X102894448Y-52143026D01*
X102913168Y-52156910D01*
X102930438Y-52172562D01*
X102946090Y-52189832D01*
X102959974Y-52208552D01*
X102971956Y-52228543D01*
X102981921Y-52249613D01*
X102989773Y-52271557D01*
X102995437Y-52294166D01*
X102998856Y-52317221D01*
X103000000Y-52340500D01*
X103000000Y-52815500D01*
X102998856Y-52838779D01*
X102995437Y-52861834D01*
X102989773Y-52884443D01*
X102981921Y-52906387D01*
X102971956Y-52927457D01*
X102959974Y-52947448D01*
X102946090Y-52966168D01*
X102930438Y-52983438D01*
X102913168Y-52999090D01*
X102894448Y-53012974D01*
X102874457Y-53024956D01*
X102853387Y-53034921D01*
X102831443Y-53042773D01*
X102808834Y-53048437D01*
X102785779Y-53051856D01*
X102762500Y-53053000D01*
X102187500Y-53053000D01*
X102164221Y-53051856D01*
X102141166Y-53048437D01*
X102118557Y-53042773D01*
X102096613Y-53034921D01*
X102075543Y-53024956D01*
X102055552Y-53012974D01*
X102036832Y-52999090D01*
X102019562Y-52983438D01*
X102003910Y-52966168D01*
X101990026Y-52947448D01*
X101978044Y-52927457D01*
X101968079Y-52906387D01*
X101960227Y-52884443D01*
X101954563Y-52861834D01*
X101951144Y-52838779D01*
X101950000Y-52815500D01*
X101950000Y-52340500D01*
X101951144Y-52317221D01*
X101954563Y-52294166D01*
X101960227Y-52271557D01*
X101968079Y-52249613D01*
X101978044Y-52228543D01*
X101990026Y-52208552D01*
X102003910Y-52189832D01*
X102019562Y-52172562D01*
X102036832Y-52156910D01*
X102055552Y-52143026D01*
X102075543Y-52131044D01*
X102096613Y-52121079D01*
X102118557Y-52113227D01*
X102141166Y-52107563D01*
X102164221Y-52104144D01*
X102187500Y-52103000D01*
X102762500Y-52103000D01*
X102785779Y-52104144D01*
X102785779Y-52104144D01*
G37*
D13*
X102475000Y-52578000D03*
D12*
G36*
X100922779Y-101888144D02*
G01*
X100945834Y-101891563D01*
X100968443Y-101897227D01*
X100990387Y-101905079D01*
X101011457Y-101915044D01*
X101031448Y-101927026D01*
X101050168Y-101940910D01*
X101067438Y-101956562D01*
X101083090Y-101973832D01*
X101096974Y-101992552D01*
X101108956Y-102012543D01*
X101118921Y-102033613D01*
X101126773Y-102055557D01*
X101132437Y-102078166D01*
X101135856Y-102101221D01*
X101137000Y-102124500D01*
X101137000Y-102599500D01*
X101135856Y-102622779D01*
X101132437Y-102645834D01*
X101126773Y-102668443D01*
X101118921Y-102690387D01*
X101108956Y-102711457D01*
X101096974Y-102731448D01*
X101083090Y-102750168D01*
X101067438Y-102767438D01*
X101050168Y-102783090D01*
X101031448Y-102796974D01*
X101011457Y-102808956D01*
X100990387Y-102818921D01*
X100968443Y-102826773D01*
X100945834Y-102832437D01*
X100922779Y-102835856D01*
X100899500Y-102837000D01*
X100324500Y-102837000D01*
X100301221Y-102835856D01*
X100278166Y-102832437D01*
X100255557Y-102826773D01*
X100233613Y-102818921D01*
X100212543Y-102808956D01*
X100192552Y-102796974D01*
X100173832Y-102783090D01*
X100156562Y-102767438D01*
X100140910Y-102750168D01*
X100127026Y-102731448D01*
X100115044Y-102711457D01*
X100105079Y-102690387D01*
X100097227Y-102668443D01*
X100091563Y-102645834D01*
X100088144Y-102622779D01*
X100087000Y-102599500D01*
X100087000Y-102124500D01*
X100088144Y-102101221D01*
X100091563Y-102078166D01*
X100097227Y-102055557D01*
X100105079Y-102033613D01*
X100115044Y-102012543D01*
X100127026Y-101992552D01*
X100140910Y-101973832D01*
X100156562Y-101956562D01*
X100173832Y-101940910D01*
X100192552Y-101927026D01*
X100212543Y-101915044D01*
X100233613Y-101905079D01*
X100255557Y-101897227D01*
X100278166Y-101891563D01*
X100301221Y-101888144D01*
X100324500Y-101887000D01*
X100899500Y-101887000D01*
X100922779Y-101888144D01*
X100922779Y-101888144D01*
G37*
D13*
X100612000Y-102362000D03*
D12*
G36*
X102672779Y-101888144D02*
G01*
X102695834Y-101891563D01*
X102718443Y-101897227D01*
X102740387Y-101905079D01*
X102761457Y-101915044D01*
X102781448Y-101927026D01*
X102800168Y-101940910D01*
X102817438Y-101956562D01*
X102833090Y-101973832D01*
X102846974Y-101992552D01*
X102858956Y-102012543D01*
X102868921Y-102033613D01*
X102876773Y-102055557D01*
X102882437Y-102078166D01*
X102885856Y-102101221D01*
X102887000Y-102124500D01*
X102887000Y-102599500D01*
X102885856Y-102622779D01*
X102882437Y-102645834D01*
X102876773Y-102668443D01*
X102868921Y-102690387D01*
X102858956Y-102711457D01*
X102846974Y-102731448D01*
X102833090Y-102750168D01*
X102817438Y-102767438D01*
X102800168Y-102783090D01*
X102781448Y-102796974D01*
X102761457Y-102808956D01*
X102740387Y-102818921D01*
X102718443Y-102826773D01*
X102695834Y-102832437D01*
X102672779Y-102835856D01*
X102649500Y-102837000D01*
X102074500Y-102837000D01*
X102051221Y-102835856D01*
X102028166Y-102832437D01*
X102005557Y-102826773D01*
X101983613Y-102818921D01*
X101962543Y-102808956D01*
X101942552Y-102796974D01*
X101923832Y-102783090D01*
X101906562Y-102767438D01*
X101890910Y-102750168D01*
X101877026Y-102731448D01*
X101865044Y-102711457D01*
X101855079Y-102690387D01*
X101847227Y-102668443D01*
X101841563Y-102645834D01*
X101838144Y-102622779D01*
X101837000Y-102599500D01*
X101837000Y-102124500D01*
X101838144Y-102101221D01*
X101841563Y-102078166D01*
X101847227Y-102055557D01*
X101855079Y-102033613D01*
X101865044Y-102012543D01*
X101877026Y-101992552D01*
X101890910Y-101973832D01*
X101906562Y-101956562D01*
X101923832Y-101940910D01*
X101942552Y-101927026D01*
X101962543Y-101915044D01*
X101983613Y-101905079D01*
X102005557Y-101897227D01*
X102028166Y-101891563D01*
X102051221Y-101888144D01*
X102074500Y-101887000D01*
X102649500Y-101887000D01*
X102672779Y-101888144D01*
X102672779Y-101888144D01*
G37*
D13*
X102362000Y-102362000D03*
D12*
G36*
X141167779Y-114842144D02*
G01*
X141190834Y-114845563D01*
X141213443Y-114851227D01*
X141235387Y-114859079D01*
X141256457Y-114869044D01*
X141276448Y-114881026D01*
X141295168Y-114894910D01*
X141312438Y-114910562D01*
X141328090Y-114927832D01*
X141341974Y-114946552D01*
X141353956Y-114966543D01*
X141363921Y-114987613D01*
X141371773Y-115009557D01*
X141377437Y-115032166D01*
X141380856Y-115055221D01*
X141382000Y-115078500D01*
X141382000Y-115553500D01*
X141380856Y-115576779D01*
X141377437Y-115599834D01*
X141371773Y-115622443D01*
X141363921Y-115644387D01*
X141353956Y-115665457D01*
X141341974Y-115685448D01*
X141328090Y-115704168D01*
X141312438Y-115721438D01*
X141295168Y-115737090D01*
X141276448Y-115750974D01*
X141256457Y-115762956D01*
X141235387Y-115772921D01*
X141213443Y-115780773D01*
X141190834Y-115786437D01*
X141167779Y-115789856D01*
X141144500Y-115791000D01*
X140569500Y-115791000D01*
X140546221Y-115789856D01*
X140523166Y-115786437D01*
X140500557Y-115780773D01*
X140478613Y-115772921D01*
X140457543Y-115762956D01*
X140437552Y-115750974D01*
X140418832Y-115737090D01*
X140401562Y-115721438D01*
X140385910Y-115704168D01*
X140372026Y-115685448D01*
X140360044Y-115665457D01*
X140350079Y-115644387D01*
X140342227Y-115622443D01*
X140336563Y-115599834D01*
X140333144Y-115576779D01*
X140332000Y-115553500D01*
X140332000Y-115078500D01*
X140333144Y-115055221D01*
X140336563Y-115032166D01*
X140342227Y-115009557D01*
X140350079Y-114987613D01*
X140360044Y-114966543D01*
X140372026Y-114946552D01*
X140385910Y-114927832D01*
X140401562Y-114910562D01*
X140418832Y-114894910D01*
X140437552Y-114881026D01*
X140457543Y-114869044D01*
X140478613Y-114859079D01*
X140500557Y-114851227D01*
X140523166Y-114845563D01*
X140546221Y-114842144D01*
X140569500Y-114841000D01*
X141144500Y-114841000D01*
X141167779Y-114842144D01*
X141167779Y-114842144D01*
G37*
D13*
X140857000Y-115316000D03*
D12*
G36*
X142917779Y-114842144D02*
G01*
X142940834Y-114845563D01*
X142963443Y-114851227D01*
X142985387Y-114859079D01*
X143006457Y-114869044D01*
X143026448Y-114881026D01*
X143045168Y-114894910D01*
X143062438Y-114910562D01*
X143078090Y-114927832D01*
X143091974Y-114946552D01*
X143103956Y-114966543D01*
X143113921Y-114987613D01*
X143121773Y-115009557D01*
X143127437Y-115032166D01*
X143130856Y-115055221D01*
X143132000Y-115078500D01*
X143132000Y-115553500D01*
X143130856Y-115576779D01*
X143127437Y-115599834D01*
X143121773Y-115622443D01*
X143113921Y-115644387D01*
X143103956Y-115665457D01*
X143091974Y-115685448D01*
X143078090Y-115704168D01*
X143062438Y-115721438D01*
X143045168Y-115737090D01*
X143026448Y-115750974D01*
X143006457Y-115762956D01*
X142985387Y-115772921D01*
X142963443Y-115780773D01*
X142940834Y-115786437D01*
X142917779Y-115789856D01*
X142894500Y-115791000D01*
X142319500Y-115791000D01*
X142296221Y-115789856D01*
X142273166Y-115786437D01*
X142250557Y-115780773D01*
X142228613Y-115772921D01*
X142207543Y-115762956D01*
X142187552Y-115750974D01*
X142168832Y-115737090D01*
X142151562Y-115721438D01*
X142135910Y-115704168D01*
X142122026Y-115685448D01*
X142110044Y-115665457D01*
X142100079Y-115644387D01*
X142092227Y-115622443D01*
X142086563Y-115599834D01*
X142083144Y-115576779D01*
X142082000Y-115553500D01*
X142082000Y-115078500D01*
X142083144Y-115055221D01*
X142086563Y-115032166D01*
X142092227Y-115009557D01*
X142100079Y-114987613D01*
X142110044Y-114966543D01*
X142122026Y-114946552D01*
X142135910Y-114927832D01*
X142151562Y-114910562D01*
X142168832Y-114894910D01*
X142187552Y-114881026D01*
X142207543Y-114869044D01*
X142228613Y-114859079D01*
X142250557Y-114851227D01*
X142273166Y-114845563D01*
X142296221Y-114842144D01*
X142319500Y-114841000D01*
X142894500Y-114841000D01*
X142917779Y-114842144D01*
X142917779Y-114842144D01*
G37*
D13*
X142607000Y-115316000D03*
D12*
G36*
X140913779Y-39150144D02*
G01*
X140936834Y-39153563D01*
X140959443Y-39159227D01*
X140981387Y-39167079D01*
X141002457Y-39177044D01*
X141022448Y-39189026D01*
X141041168Y-39202910D01*
X141058438Y-39218562D01*
X141074090Y-39235832D01*
X141087974Y-39254552D01*
X141099956Y-39274543D01*
X141109921Y-39295613D01*
X141117773Y-39317557D01*
X141123437Y-39340166D01*
X141126856Y-39363221D01*
X141128000Y-39386500D01*
X141128000Y-39861500D01*
X141126856Y-39884779D01*
X141123437Y-39907834D01*
X141117773Y-39930443D01*
X141109921Y-39952387D01*
X141099956Y-39973457D01*
X141087974Y-39993448D01*
X141074090Y-40012168D01*
X141058438Y-40029438D01*
X141041168Y-40045090D01*
X141022448Y-40058974D01*
X141002457Y-40070956D01*
X140981387Y-40080921D01*
X140959443Y-40088773D01*
X140936834Y-40094437D01*
X140913779Y-40097856D01*
X140890500Y-40099000D01*
X140315500Y-40099000D01*
X140292221Y-40097856D01*
X140269166Y-40094437D01*
X140246557Y-40088773D01*
X140224613Y-40080921D01*
X140203543Y-40070956D01*
X140183552Y-40058974D01*
X140164832Y-40045090D01*
X140147562Y-40029438D01*
X140131910Y-40012168D01*
X140118026Y-39993448D01*
X140106044Y-39973457D01*
X140096079Y-39952387D01*
X140088227Y-39930443D01*
X140082563Y-39907834D01*
X140079144Y-39884779D01*
X140078000Y-39861500D01*
X140078000Y-39386500D01*
X140079144Y-39363221D01*
X140082563Y-39340166D01*
X140088227Y-39317557D01*
X140096079Y-39295613D01*
X140106044Y-39274543D01*
X140118026Y-39254552D01*
X140131910Y-39235832D01*
X140147562Y-39218562D01*
X140164832Y-39202910D01*
X140183552Y-39189026D01*
X140203543Y-39177044D01*
X140224613Y-39167079D01*
X140246557Y-39159227D01*
X140269166Y-39153563D01*
X140292221Y-39150144D01*
X140315500Y-39149000D01*
X140890500Y-39149000D01*
X140913779Y-39150144D01*
X140913779Y-39150144D01*
G37*
D13*
X140603000Y-39624000D03*
D12*
G36*
X142663779Y-39150144D02*
G01*
X142686834Y-39153563D01*
X142709443Y-39159227D01*
X142731387Y-39167079D01*
X142752457Y-39177044D01*
X142772448Y-39189026D01*
X142791168Y-39202910D01*
X142808438Y-39218562D01*
X142824090Y-39235832D01*
X142837974Y-39254552D01*
X142849956Y-39274543D01*
X142859921Y-39295613D01*
X142867773Y-39317557D01*
X142873437Y-39340166D01*
X142876856Y-39363221D01*
X142878000Y-39386500D01*
X142878000Y-39861500D01*
X142876856Y-39884779D01*
X142873437Y-39907834D01*
X142867773Y-39930443D01*
X142859921Y-39952387D01*
X142849956Y-39973457D01*
X142837974Y-39993448D01*
X142824090Y-40012168D01*
X142808438Y-40029438D01*
X142791168Y-40045090D01*
X142772448Y-40058974D01*
X142752457Y-40070956D01*
X142731387Y-40080921D01*
X142709443Y-40088773D01*
X142686834Y-40094437D01*
X142663779Y-40097856D01*
X142640500Y-40099000D01*
X142065500Y-40099000D01*
X142042221Y-40097856D01*
X142019166Y-40094437D01*
X141996557Y-40088773D01*
X141974613Y-40080921D01*
X141953543Y-40070956D01*
X141933552Y-40058974D01*
X141914832Y-40045090D01*
X141897562Y-40029438D01*
X141881910Y-40012168D01*
X141868026Y-39993448D01*
X141856044Y-39973457D01*
X141846079Y-39952387D01*
X141838227Y-39930443D01*
X141832563Y-39907834D01*
X141829144Y-39884779D01*
X141828000Y-39861500D01*
X141828000Y-39386500D01*
X141829144Y-39363221D01*
X141832563Y-39340166D01*
X141838227Y-39317557D01*
X141846079Y-39295613D01*
X141856044Y-39274543D01*
X141868026Y-39254552D01*
X141881910Y-39235832D01*
X141897562Y-39218562D01*
X141914832Y-39202910D01*
X141933552Y-39189026D01*
X141953543Y-39177044D01*
X141974613Y-39167079D01*
X141996557Y-39159227D01*
X142019166Y-39153563D01*
X142042221Y-39150144D01*
X142065500Y-39149000D01*
X142640500Y-39149000D01*
X142663779Y-39150144D01*
X142663779Y-39150144D01*
G37*
D13*
X142353000Y-39624000D03*
D12*
G36*
X161042779Y-78329144D02*
G01*
X161065834Y-78332563D01*
X161088443Y-78338227D01*
X161110387Y-78346079D01*
X161131457Y-78356044D01*
X161151448Y-78368026D01*
X161170168Y-78381910D01*
X161187438Y-78397562D01*
X161203090Y-78414832D01*
X161216974Y-78433552D01*
X161228956Y-78453543D01*
X161238921Y-78474613D01*
X161246773Y-78496557D01*
X161252437Y-78519166D01*
X161255856Y-78542221D01*
X161257000Y-78565500D01*
X161257000Y-79140500D01*
X161255856Y-79163779D01*
X161252437Y-79186834D01*
X161246773Y-79209443D01*
X161238921Y-79231387D01*
X161228956Y-79252457D01*
X161216974Y-79272448D01*
X161203090Y-79291168D01*
X161187438Y-79308438D01*
X161170168Y-79324090D01*
X161151448Y-79337974D01*
X161131457Y-79349956D01*
X161110387Y-79359921D01*
X161088443Y-79367773D01*
X161065834Y-79373437D01*
X161042779Y-79376856D01*
X161019500Y-79378000D01*
X160544500Y-79378000D01*
X160521221Y-79376856D01*
X160498166Y-79373437D01*
X160475557Y-79367773D01*
X160453613Y-79359921D01*
X160432543Y-79349956D01*
X160412552Y-79337974D01*
X160393832Y-79324090D01*
X160376562Y-79308438D01*
X160360910Y-79291168D01*
X160347026Y-79272448D01*
X160335044Y-79252457D01*
X160325079Y-79231387D01*
X160317227Y-79209443D01*
X160311563Y-79186834D01*
X160308144Y-79163779D01*
X160307000Y-79140500D01*
X160307000Y-78565500D01*
X160308144Y-78542221D01*
X160311563Y-78519166D01*
X160317227Y-78496557D01*
X160325079Y-78474613D01*
X160335044Y-78453543D01*
X160347026Y-78433552D01*
X160360910Y-78414832D01*
X160376562Y-78397562D01*
X160393832Y-78381910D01*
X160412552Y-78368026D01*
X160432543Y-78356044D01*
X160453613Y-78346079D01*
X160475557Y-78338227D01*
X160498166Y-78332563D01*
X160521221Y-78329144D01*
X160544500Y-78328000D01*
X161019500Y-78328000D01*
X161042779Y-78329144D01*
X161042779Y-78329144D01*
G37*
D13*
X160782000Y-78853000D03*
D12*
G36*
X161042779Y-76579144D02*
G01*
X161065834Y-76582563D01*
X161088443Y-76588227D01*
X161110387Y-76596079D01*
X161131457Y-76606044D01*
X161151448Y-76618026D01*
X161170168Y-76631910D01*
X161187438Y-76647562D01*
X161203090Y-76664832D01*
X161216974Y-76683552D01*
X161228956Y-76703543D01*
X161238921Y-76724613D01*
X161246773Y-76746557D01*
X161252437Y-76769166D01*
X161255856Y-76792221D01*
X161257000Y-76815500D01*
X161257000Y-77390500D01*
X161255856Y-77413779D01*
X161252437Y-77436834D01*
X161246773Y-77459443D01*
X161238921Y-77481387D01*
X161228956Y-77502457D01*
X161216974Y-77522448D01*
X161203090Y-77541168D01*
X161187438Y-77558438D01*
X161170168Y-77574090D01*
X161151448Y-77587974D01*
X161131457Y-77599956D01*
X161110387Y-77609921D01*
X161088443Y-77617773D01*
X161065834Y-77623437D01*
X161042779Y-77626856D01*
X161019500Y-77628000D01*
X160544500Y-77628000D01*
X160521221Y-77626856D01*
X160498166Y-77623437D01*
X160475557Y-77617773D01*
X160453613Y-77609921D01*
X160432543Y-77599956D01*
X160412552Y-77587974D01*
X160393832Y-77574090D01*
X160376562Y-77558438D01*
X160360910Y-77541168D01*
X160347026Y-77522448D01*
X160335044Y-77502457D01*
X160325079Y-77481387D01*
X160317227Y-77459443D01*
X160311563Y-77436834D01*
X160308144Y-77413779D01*
X160307000Y-77390500D01*
X160307000Y-76815500D01*
X160308144Y-76792221D01*
X160311563Y-76769166D01*
X160317227Y-76746557D01*
X160325079Y-76724613D01*
X160335044Y-76703543D01*
X160347026Y-76683552D01*
X160360910Y-76664832D01*
X160376562Y-76647562D01*
X160393832Y-76631910D01*
X160412552Y-76618026D01*
X160432543Y-76606044D01*
X160453613Y-76596079D01*
X160475557Y-76588227D01*
X160498166Y-76582563D01*
X160521221Y-76579144D01*
X160544500Y-76578000D01*
X161019500Y-76578000D01*
X161042779Y-76579144D01*
X161042779Y-76579144D01*
G37*
D13*
X160782000Y-77103000D03*
M02*
