G04 #@! TF.GenerationSoftware,KiCad,Pcbnew,(5.1.0)-1*
G04 #@! TF.CreationDate,2019-06-01T08:22:03-04:00*
G04 #@! TF.ProjectId,CommandCenter_KICAD,436f6d6d-616e-4644-9365-6e7465725f4b,rev?*
G04 #@! TF.SameCoordinates,Original*
G04 #@! TF.FileFunction,Legend,Bot*
G04 #@! TF.FilePolarity,Positive*
%FSLAX46Y46*%
G04 Gerber Fmt 4.6, Leading zero omitted, Abs format (unit mm)*
G04 Created by KiCad (PCBNEW (5.1.0)-1) date 2019-06-01 08:22:03*
%MOMM*%
%LPD*%
G04 APERTURE LIST*
%ADD10C,0.150000*%
%ADD11C,0.120000*%
%ADD12C,0.100000*%
G04 APERTURE END LIST*
D10*
X210671210Y-36449000D02*
G75*
G03X210671210Y-36449000I-359210J0D01*
G01*
X128375210Y-140081000D02*
G75*
G03X128375210Y-140081000I-359210J0D01*
G01*
D11*
X208026000Y-115140000D02*
X209726000Y-115140000D01*
X209726000Y-115140000D02*
X209726000Y-116840000D01*
X198996000Y-141110000D02*
X209436000Y-141110000D01*
X209436000Y-141110000D02*
X209436000Y-115430000D01*
X209436000Y-115430000D02*
X198996000Y-115430000D01*
X198996000Y-115430000D02*
X198996000Y-141110000D01*
X198996000Y-36944000D02*
X198996000Y-62624000D01*
X209436000Y-36944000D02*
X198996000Y-36944000D01*
X209436000Y-62624000D02*
X209436000Y-36944000D01*
X198996000Y-62624000D02*
X209436000Y-62624000D01*
X209726000Y-36654000D02*
X209726000Y-38354000D01*
X208026000Y-36654000D02*
X209726000Y-36654000D01*
X208026000Y-62816000D02*
X209726000Y-62816000D01*
X209726000Y-62816000D02*
X209726000Y-64516000D01*
X198996000Y-88786000D02*
X209436000Y-88786000D01*
X209436000Y-88786000D02*
X209436000Y-63106000D01*
X209436000Y-63106000D02*
X198996000Y-63106000D01*
X198996000Y-63106000D02*
X198996000Y-88786000D01*
X198996000Y-89268000D02*
X198996000Y-114948000D01*
X209436000Y-89268000D02*
X198996000Y-89268000D01*
X209436000Y-114948000D02*
X209436000Y-89268000D01*
X198996000Y-114948000D02*
X209436000Y-114948000D01*
X209726000Y-88978000D02*
X209726000Y-90678000D01*
X208026000Y-88978000D02*
X209726000Y-88978000D01*
D12*
X132675000Y-137409000D02*
X132200000Y-137409000D01*
X132700000Y-137409000D02*
X132700000Y-137909000D01*
X128550000Y-137409000D02*
X128550000Y-137934000D01*
X128550000Y-137409000D02*
X129100000Y-137409000D01*
X128550000Y-139959000D02*
X128550000Y-139534000D01*
X128550000Y-139959000D02*
X129050000Y-139959000D01*
X132700000Y-139959000D02*
X132250000Y-139959000D01*
X132700000Y-139959000D02*
X132700000Y-139534000D01*
D10*
X163884000Y-90648000D02*
X163284000Y-90048000D01*
X163284000Y-86248000D02*
X163284000Y-90248000D01*
X165684000Y-90648000D02*
X165684000Y-86248000D01*
X163284000Y-90248000D02*
X163284000Y-90648000D01*
X165684000Y-86248000D02*
X163284000Y-86248000D01*
X165684000Y-90648000D02*
X163284000Y-90648000D01*
X158884000Y-100648000D02*
X158284000Y-100048000D01*
X158284000Y-96248000D02*
X158284000Y-100248000D01*
X160684000Y-100648000D02*
X160684000Y-96248000D01*
X158284000Y-100248000D02*
X158284000Y-100648000D01*
X160684000Y-96248000D02*
X158284000Y-96248000D01*
X160684000Y-100648000D02*
X158284000Y-100648000D01*
X152084000Y-104248000D02*
X152684000Y-104848000D01*
X152684000Y-108648000D02*
X152684000Y-104648000D01*
X150284000Y-104248000D02*
X150284000Y-108648000D01*
X152684000Y-104648000D02*
X152684000Y-104248000D01*
X150284000Y-108648000D02*
X152684000Y-108648000D01*
X150284000Y-104248000D02*
X152684000Y-104248000D01*
X142084000Y-109248000D02*
X142684000Y-109848000D01*
X142684000Y-113648000D02*
X142684000Y-109648000D01*
X140284000Y-109248000D02*
X140284000Y-113648000D01*
X142684000Y-109648000D02*
X142684000Y-109248000D01*
X140284000Y-113648000D02*
X142684000Y-113648000D01*
X140284000Y-109248000D02*
X142684000Y-109248000D01*
X129284000Y-111248000D02*
X131684000Y-111248000D01*
X129284000Y-115648000D02*
X131684000Y-115648000D01*
X131684000Y-111648000D02*
X131684000Y-111248000D01*
X129284000Y-111248000D02*
X129284000Y-115648000D01*
X131684000Y-115648000D02*
X131684000Y-111648000D01*
X131084000Y-111248000D02*
X131684000Y-111848000D01*
X120084000Y-109248000D02*
X120684000Y-109848000D01*
X120684000Y-113648000D02*
X120684000Y-109648000D01*
X118284000Y-109248000D02*
X118284000Y-113648000D01*
X120684000Y-109648000D02*
X120684000Y-109248000D01*
X118284000Y-113648000D02*
X120684000Y-113648000D01*
X118284000Y-109248000D02*
X120684000Y-109248000D01*
X110084000Y-104248000D02*
X110684000Y-104848000D01*
X110684000Y-108648000D02*
X110684000Y-104648000D01*
X108284000Y-104248000D02*
X108284000Y-108648000D01*
X110684000Y-104648000D02*
X110684000Y-104248000D01*
X108284000Y-108648000D02*
X110684000Y-108648000D01*
X108284000Y-104248000D02*
X110684000Y-104248000D01*
X102084000Y-96248000D02*
X102684000Y-96848000D01*
X102684000Y-100648000D02*
X102684000Y-96648000D01*
X100284000Y-96248000D02*
X100284000Y-100648000D01*
X102684000Y-96648000D02*
X102684000Y-96248000D01*
X100284000Y-100648000D02*
X102684000Y-100648000D01*
X100284000Y-96248000D02*
X102684000Y-96248000D01*
X97684000Y-90648000D02*
X95284000Y-90648000D01*
X97684000Y-86248000D02*
X95284000Y-86248000D01*
X95284000Y-90248000D02*
X95284000Y-90648000D01*
X97684000Y-90648000D02*
X97684000Y-86248000D01*
X95284000Y-86248000D02*
X95284000Y-90248000D01*
X95884000Y-90648000D02*
X95284000Y-90048000D01*
X95684000Y-79648000D02*
X93284000Y-79648000D01*
X95684000Y-75248000D02*
X93284000Y-75248000D01*
X93284000Y-79248000D02*
X93284000Y-79648000D01*
X95684000Y-79648000D02*
X95684000Y-75248000D01*
X93284000Y-75248000D02*
X93284000Y-79248000D01*
X93884000Y-79648000D02*
X93284000Y-79048000D01*
X97684000Y-68648000D02*
X95284000Y-68648000D01*
X97684000Y-64248000D02*
X95284000Y-64248000D01*
X95284000Y-68248000D02*
X95284000Y-68648000D01*
X97684000Y-68648000D02*
X97684000Y-64248000D01*
X95284000Y-64248000D02*
X95284000Y-68248000D01*
X95884000Y-68648000D02*
X95284000Y-68048000D01*
X102684000Y-58648000D02*
X100284000Y-58648000D01*
X102684000Y-54248000D02*
X100284000Y-54248000D01*
X100284000Y-58248000D02*
X100284000Y-58648000D01*
X102684000Y-58648000D02*
X102684000Y-54248000D01*
X100284000Y-54248000D02*
X100284000Y-58248000D01*
X100884000Y-58648000D02*
X100284000Y-58048000D01*
X108884000Y-50648000D02*
X108284000Y-50048000D01*
X108284000Y-46248000D02*
X108284000Y-50248000D01*
X110684000Y-50648000D02*
X110684000Y-46248000D01*
X108284000Y-50248000D02*
X108284000Y-50648000D01*
X110684000Y-46248000D02*
X108284000Y-46248000D01*
X110684000Y-50648000D02*
X108284000Y-50648000D01*
X120684000Y-45648000D02*
X118284000Y-45648000D01*
X120684000Y-41248000D02*
X118284000Y-41248000D01*
X118284000Y-45248000D02*
X118284000Y-45648000D01*
X120684000Y-45648000D02*
X120684000Y-41248000D01*
X118284000Y-41248000D02*
X118284000Y-45248000D01*
X118884000Y-45648000D02*
X118284000Y-45048000D01*
X131684000Y-43648000D02*
X129284000Y-43648000D01*
X131684000Y-39248000D02*
X129284000Y-39248000D01*
X129284000Y-43248000D02*
X129284000Y-43648000D01*
X131684000Y-43648000D02*
X131684000Y-39248000D01*
X129284000Y-39248000D02*
X129284000Y-43248000D01*
X129884000Y-43648000D02*
X129284000Y-43048000D01*
X140884000Y-45648000D02*
X140284000Y-45048000D01*
X140284000Y-41248000D02*
X140284000Y-45248000D01*
X142684000Y-45648000D02*
X142684000Y-41248000D01*
X140284000Y-45248000D02*
X140284000Y-45648000D01*
X142684000Y-41248000D02*
X140284000Y-41248000D01*
X142684000Y-45648000D02*
X140284000Y-45648000D01*
X152684000Y-50648000D02*
X150284000Y-50648000D01*
X152684000Y-46248000D02*
X150284000Y-46248000D01*
X150284000Y-50248000D02*
X150284000Y-50648000D01*
X152684000Y-50648000D02*
X152684000Y-46248000D01*
X150284000Y-46248000D02*
X150284000Y-50248000D01*
X150884000Y-50648000D02*
X150284000Y-50048000D01*
X158884000Y-58648000D02*
X158284000Y-58048000D01*
X158284000Y-54248000D02*
X158284000Y-58248000D01*
X160684000Y-58648000D02*
X160684000Y-54248000D01*
X158284000Y-58248000D02*
X158284000Y-58648000D01*
X160684000Y-54248000D02*
X158284000Y-54248000D01*
X160684000Y-58648000D02*
X158284000Y-58648000D01*
X163284000Y-64248000D02*
X165684000Y-64248000D01*
X163284000Y-68648000D02*
X165684000Y-68648000D01*
X165684000Y-64648000D02*
X165684000Y-64248000D01*
X163284000Y-64248000D02*
X163284000Y-68648000D01*
X165684000Y-68648000D02*
X165684000Y-64648000D01*
X165084000Y-64248000D02*
X165684000Y-64848000D01*
X165284000Y-75248000D02*
X167684000Y-75248000D01*
X165284000Y-79648000D02*
X167684000Y-79648000D01*
X167684000Y-75648000D02*
X167684000Y-75248000D01*
X165284000Y-75248000D02*
X165284000Y-79648000D01*
X167684000Y-79648000D02*
X167684000Y-75648000D01*
X167084000Y-75248000D02*
X167684000Y-75848000D01*
D11*
X102364000Y-87712733D02*
X102364000Y-88055267D01*
X101344000Y-87712733D02*
X101344000Y-88055267D01*
X130384733Y-116584000D02*
X130727267Y-116584000D01*
X130384733Y-117604000D02*
X130727267Y-117604000D01*
X170944000Y-87825733D02*
X170944000Y-88168267D01*
X169924000Y-87825733D02*
X169924000Y-88168267D01*
X109645267Y-44960000D02*
X109302733Y-44960000D01*
X109645267Y-43940000D02*
X109302733Y-43940000D01*
X151555267Y-43686000D02*
X151212733Y-43686000D01*
X151555267Y-44706000D02*
X151212733Y-44706000D01*
X100586000Y-76536733D02*
X100586000Y-76879267D01*
X99566000Y-76536733D02*
X99566000Y-76879267D01*
X119462733Y-115826000D02*
X119805267Y-115826000D01*
X119462733Y-114806000D02*
X119805267Y-114806000D01*
X165606000Y-97618733D02*
X165606000Y-97961267D01*
X166626000Y-97618733D02*
X166626000Y-97961267D01*
X119664267Y-40388000D02*
X119321733Y-40388000D01*
X119664267Y-39368000D02*
X119321733Y-39368000D01*
X159683267Y-52068000D02*
X159340733Y-52068000D01*
X159683267Y-53088000D02*
X159340733Y-53088000D01*
X96691267Y-61974000D02*
X96348733Y-61974000D01*
X96691267Y-62994000D02*
X96348733Y-62994000D01*
X109556733Y-110234000D02*
X109899267Y-110234000D01*
X109556733Y-111254000D02*
X109899267Y-111254000D01*
X151212733Y-109726000D02*
X151555267Y-109726000D01*
X151212733Y-110746000D02*
X151555267Y-110746000D01*
X130727267Y-37336000D02*
X130384733Y-37336000D01*
X130727267Y-38356000D02*
X130384733Y-38356000D01*
X159260000Y-66973267D02*
X159260000Y-66630733D01*
X158240000Y-66973267D02*
X158240000Y-66630733D01*
X101771267Y-53088000D02*
X101428733Y-53088000D01*
X101771267Y-52068000D02*
X101428733Y-52068000D01*
X101315733Y-102872000D02*
X101658267Y-102872000D01*
X101315733Y-101852000D02*
X101658267Y-101852000D01*
X141560733Y-115826000D02*
X141903267Y-115826000D01*
X141560733Y-114806000D02*
X141903267Y-114806000D01*
X141649267Y-40134000D02*
X141306733Y-40134000D01*
X141649267Y-39114000D02*
X141306733Y-39114000D01*
X161292000Y-78149267D02*
X161292000Y-77806733D01*
X160272000Y-78149267D02*
X160272000Y-77806733D01*
D10*
X131386904Y-140496380D02*
X131386904Y-141305904D01*
X131339285Y-141401142D01*
X131291666Y-141448761D01*
X131196428Y-141496380D01*
X131005952Y-141496380D01*
X130910714Y-141448761D01*
X130863095Y-141401142D01*
X130815476Y-141305904D01*
X130815476Y-140496380D01*
X130434523Y-140496380D02*
X129767857Y-140496380D01*
X130196428Y-141496380D01*
M02*
