M48
; DRILL file {KiCad (5.1.0)-1} date 6/1/2019 8:22:09 AM
; FORMAT={-:-/ absolute / inch / decimal}
; #@! TF.CreationDate,2019-06-01T08:22:09-04:00
; #@! TF.GenerationSoftware,Kicad,Pcbnew,(5.1.0)-1
; #@! TF.FileFunction,Plated,1,2,PTH
FMAT,2
INCH
T1C0.0157
T2C0.0236
T3C0.0276
T4C0.0295
T5C0.0360
T6C0.0394
%
G90
G05
T1
X2.91Y-2.25
X2.99Y-1.92
X2.99Y-2.89
X3.09Y-2.75
X3.2Y-2.64
X3.37Y-1.8
X3.45Y-1.28
X3.51Y-1.28
X3.59Y-1.76
X3.68Y-1.58
X3.75Y-1.14
X3.77Y-3.95
X3.8Y-1.75
X3.81Y-1.18
X3.86Y-1.83
X3.88Y-1.03
X3.9Y-2.36
X3.93Y-1.03
X4.0Y-2.36
X4.02Y-1.47
X4.06Y-4.67
X4.065Y-1.725
X4.1Y-1.2
X4.1Y-1.875
X4.1Y-2.78
X4.12Y-1.025
X4.15Y-1.36
X4.19Y-3.67
X4.215Y-1.12
X4.25Y-2.11
X4.26Y-1.27
X4.31Y-2.66
X4.31Y-3.93
X4.33Y-1.65
X4.36Y-1.48
X4.38Y-1.59
X4.38Y-2.54
X4.38Y-3.58
X4.41Y-2.21
X4.44Y-1.48
X4.45Y-1.58
X4.47Y-1.77
X4.47Y-2.25
X4.48Y-1.26
X4.48Y-1.35
X4.49Y-1.65
X4.51Y-0.86
X4.52Y-2.0
X4.52Y-2.09
X4.54Y-1.48
X4.54Y-2.17
X4.54Y-2.64
X4.565Y-2.105
X4.57Y-2.6
X4.59Y-1.43
X4.59Y-1.58
X4.6Y-3.13
X4.62Y-2.29
X4.65Y-2.21
X4.68Y-2.54
X4.69Y-2.0
X4.69Y-2.06
X4.71Y-1.86
X4.71Y-1.93
X4.71Y-2.66
X4.74Y-1.43
X4.74Y-2.56
X4.79Y-1.97
X4.79Y-2.54
X4.8Y-2.25
X4.81Y-2.66
X4.82Y-1.48
X4.83Y-2.3
X4.835Y-1.99
X4.85Y-2.15
X4.85Y-2.59
X4.86Y-2.11
X4.88Y-1.53
X4.88Y-2.21
X4.89Y-1.87
X4.89Y-1.97
X4.9Y-1.93
X4.91Y-2.16
X4.91Y-2.93
X4.935Y-2.49
X4.95Y-2.12
X4.9628Y-1.9417
X4.97Y-5.11
X4.98Y-2.32
X4.99Y-2.45
X5.0Y-2.59
X5.01Y-2.16
X5.02Y-1.17
X5.02Y-2.99
X5.03Y-1.25
X5.03Y-1.345
X5.03Y-1.49
X5.03Y-1.9
X5.03Y-2.6546
X5.07Y-2.48
X5.08Y-5.58
X5.09Y-3.06
X5.11Y-1.77
X5.13Y-1.84
X5.14Y-2.18
X5.15Y-1.96
X5.15Y-2.35
X5.15Y-2.66
X5.15Y-2.9
X5.16Y-1.18
X5.17Y-2.5
X5.18Y-1.0
X5.18Y-1.35
X5.19Y-0.88
X5.19Y-2.27
X5.2Y-5.315
X5.23Y-2.39
X5.25Y-2.66
X5.265Y-5.415
X5.275Y-5.33
X5.28Y-1.43
X5.28Y-1.77
X5.34Y-2.615
X5.35Y-1.46
X5.375Y-2.83
X5.385Y-1.275
X5.4Y-1.34
X5.4Y-5.33
X5.46Y-2.13
X5.47Y-0.92
X5.52Y-2.2
X5.59Y-2.31
X5.76Y-1.46
X5.89Y-3.6
X5.89Y-5.21
X5.93Y-2.31
X6.16Y-3.54
X6.2Y-1.88
X6.23Y-1.74
X6.24Y-3.55
X6.25Y-1.64
X6.27Y-3.39
X6.27Y-5.23
X6.29Y-5.78
X6.32Y-3.19
X6.38Y-5.7
X6.41Y-5.9949
X6.47Y-3.35
X6.51Y-5.63
X6.52Y-3.36
X6.52Y-6.33
X6.56Y-5.72
X6.59Y-5.5
X6.61Y-5.68
X6.62Y-1.615
X6.62Y-1.825
X6.63Y-5.83
X6.64Y-6.2
X6.71Y-5.36
X6.75Y-0.91
X6.77Y-5.66
X6.895Y-1.245
X6.895Y-1.41
X6.91Y-6.16
X7.0Y-0.965
X7.02Y-1.56
X7.02Y-6.13
X7.04Y-1.24
X7.055Y-1.01
X7.07Y-1.56
X7.085Y-1.85
X7.1Y-1.41
X7.105Y-1.925
X7.11Y-5.5
X7.14Y-6.1
X7.16Y-5.66
X7.195Y-1.85
X7.2Y-1.14
X7.25Y-4.99
X7.27Y-1.58
X7.28Y-0.905
X7.29Y-1.02
X7.3Y-5.66
X7.32Y-6.1
X7.34Y-5.58
X7.36Y-4.95
X7.36Y-5.26
X7.36Y-6.13
X7.38Y-5.41
X7.39Y-2.03
X7.4Y-6.16
X7.42Y-5.08
X7.45Y-5.42
X7.48Y-5.495
X7.49Y-5.83
X7.495Y-1.69
X7.5Y-6.2
X7.505Y-6.26
X7.51Y-5.58
X7.51Y-6.33
X7.52Y-5.87
X7.54Y-5.4
X7.555Y-5.165
X7.56Y-5.215
X7.56Y-5.35
X7.565Y-5.44
X7.57Y-5.3
X7.57Y-6.38
X7.59Y-5.87
X7.625Y-4.735
X7.63Y-5.0
X7.66Y-5.87
X7.695Y-4.835
X7.705Y-5.9848
X7.73Y-4.65
X7.76Y-3.01
X7.76Y-3.1
X7.76Y-3.84
X7.77Y-2.16
X7.77Y-2.29
X7.77Y-4.7
X7.8Y-2.905
X7.8Y-2.98
X7.8Y-3.14
X7.8Y-3.73
X7.8Y-3.82
X7.81Y-2.06
X7.81Y-2.17
X7.83Y-2.8
X7.83Y-2.87
X7.83Y-3.01
X7.95Y-3.2
X7.97Y-1.76
X7.97Y-4.22
X7.98Y-3.37
X8.0Y-1.85
X8.01Y-4.33
X8.01Y-4.43
X8.01Y-4.57
X8.04Y-1.3
X8.06Y-4.42
X8.06Y-4.51
X8.0954Y-4.59
X8.15Y-1.24
X8.27Y-1.35
X8.275Y-5.525
X8.28Y-4.985
X8.305Y-2.41
X8.35Y-5.475
X8.35Y-5.545
X8.363Y-5.42
X8.365Y-4.985
X8.375Y-5.2
X8.375Y-5.37
X8.39Y-5.28
X8.43Y-2.41
X8.47Y-1.42
X8.47Y-5.09
X8.5Y-4.99
X8.51Y-4.76
X8.51Y-5.15
X8.54Y-1.3
X8.55Y-5.19
X8.555Y-2.41
X8.5845Y-5.2755
X8.59Y-4.94
X8.6035Y-4.861
X8.62Y-1.35
X8.62Y-5.306
X8.645Y-6.095
X8.6455Y-4.809
X8.655Y-5.955
X8.66Y-5.37
X8.67Y-2.52
X8.67Y-2.79
X8.68Y-2.43
X8.69Y-3.54
X8.71Y-3.16
X8.715Y-4.85
X8.728Y-4.7945
X8.73Y-4.6
X8.73Y-5.45
X8.74Y-5.63
X8.75Y-5.68
X8.76Y-2.54
X8.76Y-4.95
X8.76Y-4.99
X8.76Y-5.21
X8.7715Y-4.7065
X8.78Y-3.675
X8.785Y-6.175
X8.79Y-5.18
X8.8Y-4.93
X8.82Y-5.23
X8.84Y-5.52
X8.85Y-5.11
X8.85Y-5.46
X8.86Y-5.16
X8.88Y-4.96
X8.88Y-5.3
X8.885Y-5.745
X8.89Y-5.24
X8.92Y-2.28
X8.93Y-2.67
X8.93Y-5.19
X8.93Y-6.07
X8.95Y-2.88
X8.95Y-3.04
X8.96Y-3.43
X8.96Y-4.22
X8.97Y-5.13
X8.975Y-3.675
X9.01Y-5.83
X9.02Y-5.45
X9.0311Y-5.9489
X9.045Y-5.515
X9.06Y-5.48
X9.06Y-5.555
X9.065Y-5.915
X9.07Y-5.75
X9.11Y-5.865
X9.14Y-4.62
X9.14Y-5.725
X9.145Y-5.263
X9.15Y-5.21
X9.15Y-5.99
X9.16Y-4.14
X9.165Y-5.805
X9.18Y-5.05
X9.21Y-4.51
X9.21Y-4.99
X9.24Y-5.3
X9.28Y-2.09
X9.33Y-4.99
X9.33Y-5.41
X9.33Y-5.87
X9.36Y-3.58
X9.45Y-4.99
T2
X3.12Y-1.76
X3.12Y-1.82
X3.12Y-1.88
X3.14Y-1.49
X3.14Y-1.55
X3.14Y-1.61
X3.18Y-1.76
X3.18Y-1.82
X3.18Y-1.88
X3.21Y-1.46
X3.22Y-1.58
X3.22Y-1.63
X3.2222Y-1.5222
X3.24Y-1.76
X3.24Y-1.82
X3.24Y-1.88
X3.36Y-1.4
X3.43Y-1.4
X3.47Y-1.57
X3.48Y-1.4
X3.49Y-1.52
X3.52Y-1.58
X3.52Y-1.66
T3
X5.46Y-1.04
X5.46Y-1.09
X5.51Y-1.04
X5.51Y-1.09
X5.56Y-1.04
X5.56Y-1.09
X5.61Y-1.04
X5.61Y-1.09
X5.66Y-1.04
X5.66Y-1.09
X6.75Y-1.06
X6.75Y-1.11
X6.8Y-1.06
X6.8Y-1.11
X6.85Y-1.06
X6.85Y-1.11
X6.9Y-1.06
X6.9Y-1.11
X6.95Y-1.06
X6.95Y-1.11
T4
X3.2213Y-1.12
X3.3Y-1.12
T5
X7.89Y-3.57
X7.89Y-3.67
X7.89Y-3.77
X7.89Y-3.87
X7.89Y-3.97
X7.89Y-4.07
X7.89Y-4.17
X7.89Y-4.27
X7.89Y-4.37
X7.89Y-4.47
X8.19Y-3.57
X8.19Y-3.67
X8.19Y-3.77
X8.19Y-3.87
X8.19Y-3.97
X8.19Y-4.07
X8.19Y-4.17
X8.19Y-4.27
X8.19Y-4.37
X8.19Y-4.47
X7.89Y-2.54
X7.89Y-2.64
X7.89Y-2.74
X7.89Y-2.84
X7.89Y-2.94
X7.89Y-3.04
X7.89Y-3.14
X7.89Y-3.24
X7.89Y-3.34
X7.89Y-3.44
X8.19Y-2.54
X8.19Y-2.64
X8.19Y-2.74
X8.19Y-2.84
X8.19Y-2.94
X8.19Y-3.04
X8.19Y-3.14
X8.19Y-3.24
X8.19Y-3.34
X8.19Y-3.44
X7.89Y-4.6
X7.89Y-4.7
X7.89Y-4.8
X7.89Y-4.9
X7.89Y-5.0
X7.89Y-5.1
X7.89Y-5.2
X7.89Y-5.3
X7.89Y-5.4
X7.89Y-5.5
X8.19Y-4.6
X8.19Y-4.7
X8.19Y-4.8
X8.19Y-4.9
X8.19Y-5.0
X8.19Y-5.1
X8.19Y-5.2
X8.19Y-5.3
X8.19Y-5.4
X8.19Y-5.5
X7.89Y-1.51
X7.89Y-1.61
X7.89Y-1.71
X7.89Y-1.81
X7.89Y-1.91
X7.89Y-2.01
X7.89Y-2.11
X7.89Y-2.21
X7.89Y-2.31
X7.89Y-2.41
X8.19Y-1.51
X8.19Y-1.61
X8.19Y-1.71
X8.19Y-1.81
X8.19Y-1.91
X8.19Y-2.01
X8.19Y-2.11
X8.19Y-2.21
X8.19Y-2.31
X8.19Y-2.41
T6
X9.09Y-3.37
X9.09Y-3.47
X9.08Y-2.23
X9.08Y-2.33
X7.98Y-1.05
X8.08Y-1.05
X9.09Y-3.85
X9.09Y-3.95
X8.76Y-3.85
X8.76Y-3.95
X9.49Y-5.67
X9.49Y-5.77
X7.69Y-6.29
X7.79Y-6.29
X7.89Y-6.29
X7.99Y-6.29
X8.09Y-6.29
X8.19Y-6.29
X8.29Y-6.29
X8.39Y-6.29
X8.49Y-6.29
X8.76Y-4.29
X8.76Y-4.39
X3.02Y-3.59
X3.02Y-3.69
X3.02Y-3.79
X3.91Y-0.91
X4.01Y-0.91
X9.08Y-2.99
X9.08Y-3.09
X9.08Y-2.61
X9.08Y-2.71
X9.09Y-4.29
X9.09Y-4.39
X3.02Y-4.32
X3.02Y-4.42
X3.02Y-4.52
X3.02Y-4.62
T0
M30
